<svg width="64" height="64" viewBox="0 0 64 64" fill="none" xmlns="http://www.w3.org/2000/svg">
<path fill-rule="evenodd" clip-rule="evenodd" d="M32 64C40.4869 64 48.6263 60.6286 54.6274 54.6274C60.6286 48.6263 64 40.4869 64 32C64 23.5131 60.6286 15.3737 54.6274 9.37258C48.6263 3.37142 40.4869 0 32 0C23.5131 0 15.3737 3.37142 9.37258 9.37258C3.37142 15.3737 0 23.5131 0 32C0 40.4869 3.37142 48.6263 9.37258 54.6274C15.3737 60.6286 23.5131 64 32 64V64ZM36 20C36 18.9391 35.5786 17.9217 34.8284 17.1716C34.0783 16.4214 33.0609 16 32 16C30.9391 16 29.9217 16.4214 29.1716 17.1716C28.4214 17.9217 28 18.9391 28 20V28H20C18.9391 28 17.9217 28.4214 17.1716 29.1716C16.4214 29.9217 16 30.9391 16 32C16 33.0609 16.4214 34.0783 17.1716 34.8284C17.9217 35.5786 18.9391 36 20 36H28V44C28 45.0609 28.4214 46.0783 29.1716 46.8284C29.9217 47.5786 30.9391 48 32 48C33.0609 48 34.0783 47.5786 34.8284 46.8284C35.5786 46.0783 36 45.0609 36 44V36H44C45.0609 36 46.0783 35.5786 46.8284 34.8284C47.5786 34.0783 48 33.0609 48 32C48 30.9391 47.5786 29.9217 46.8284 29.1716C46.0783 28.4214 45.0609 28 44 28H36V20Z" fill="#307DF1"/>
</svg>
