<svg width="30" height="30" viewBox="0 0 30 30" fill="none" xmlns="http://www.w3.org/2000/svg">
<path d="M9.18891 9.41118C9.29309 9.89042 9.45284 10.2007 9.63921 10.394C10.0826 13.4801 12.8527 16.1101 15.0775 16.0002C17.9078 15.8612 19.9139 12.811 20.3642 10.394C20.5506 10.2018 20.73 9.79087 20.8377 9.30815C20.9581 8.75367 21.0877 7.91789 20.7543 7.47569C20.7347 7.45254 20.6073 7.33563 20.5853 7.31595C20.9037 6.16762 21.6029 4.1187 19.8619 2.27698C18.9184 1.27914 17.608 0.777902 16.4238 0.382008C12.9279 -0.785996 10.4599 0.851988 9.32087 3.57579C9.23868 3.7691 8.70735 4.99267 9.35097 7.31595C9.28846 7.35762 9.23174 7.41087 9.18428 7.47569C8.84973 7.91673 9.06736 8.8567 9.18891 9.41118Z" fill="white"/>
<path d="M27.2692 26.3837C27.172 24.2595 27.0516 20.8933 25.196 18.1394C25.196 18.1394 24.667 17.4182 23.4122 16.939C23.4122 16.939 20.6872 16.109 19.4324 15.2118L18.8594 15.6043L18.9231 19.3294L15.4827 28.5137C15.4075 28.7151 15.2153 28.8482 15.0012 28.8482C14.787 28.8482 14.5948 28.7151 14.5196 28.5137L11.0804 19.3294C11.0804 19.3294 11.1441 15.6158 11.1429 15.6043C11.151 15.6355 10.5688 15.2118 10.5688 15.2118C9.31625 16.109 6.59013 16.939 6.59013 16.939C5.33531 17.4182 4.80629 18.1394 4.80629 18.1394C2.95184 20.8933 2.82913 24.2595 2.7319 26.3837C2.66476 27.8515 2.97267 28.3991 3.35931 28.5553C8.15866 30.4816 21.8402 30.4816 26.6407 28.5553C27.0296 28.4002 27.3352 27.8515 27.2692 26.3837Z" fill="white"/>
<path d="M15.1241 17.1867L14.969 17.1902C14.4689 17.1902 13.9642 17.0929 13.4688 16.9216L14.8324 19.0087L13.6088 20.1895L14.8683 27.8376C14.8787 27.9036 14.9354 27.9511 15.0026 27.9511C15.0685 27.9511 15.1253 27.9036 15.1368 27.8376L16.3963 20.1895L15.1716 19.0087L16.5155 16.9528C16.0768 17.0813 15.6126 17.167 15.1241 17.1867Z" fill="white"/>
</svg>
