<svg width="30" height="30" viewBox="0 0 30 30" fill="none" xmlns="http://www.w3.org/2000/svg">
<path d="M29.3825 25.5265C29.1529 25.5265 28.9367 25.3976 28.8307 25.1855C28.7952 25.1169 25.9672 19.8733 14.1659 19.6949V24.9096C14.1659 25.1446 14.0322 25.3591 13.8216 25.4627C13.6113 25.5663 13.3607 25.5423 13.1734 25.3995L0.242491 15.4898C0.090094 15.3729 0 15.1921 0 15.0006C0 14.808 0.090094 14.6273 0.242491 14.5102L13.174 4.60082C13.3616 4.45776 13.6119 4.43358 13.8222 4.53671C14.0328 4.63965 14.1665 4.85505 14.1665 5.08942V10.585C14.4786 10.5651 14.8853 10.5478 15.3651 10.5478C19.7656 10.5478 30 11.9476 30 24.9083C30 25.195 29.803 25.4444 29.5234 25.5096C29.4764 25.5217 29.43 25.5265 29.3825 25.5265Z" fill="white"/>
</svg>
