<svg width="22" height="22" viewBox="0 0 22 22" fill="none" xmlns="http://www.w3.org/2000/svg">
<path d="M21 6.58723V10.1386C18.2059 11.1745 14.7353 11.7664 11 11.7664C7.26471 11.7664 3.79412 11.1745 1 10.1386V6.58723C1 5.93614 1.52941 5.40343 2.17647 5.40343H7.02941V4.51558C7.02941 3.15421 8.14706 2 9.52941 2H12.4706C13.8529 2 14.9706 3.15421 14.9706 4.51558V5.40343H19.8235C20.4706 5.40343 21 5.93614 21 6.58723ZM8.5 4.51558V5.40343H13.5V4.51558C13.5 3.95327 13.0294 3.47975 12.4706 3.47975H9.52941C8.97059 3.47975 8.5 3.95327 8.5 4.51558ZM9.52941 9.93146V10.5234C9.52941 10.7009 9.64706 10.8193 9.82353 10.8193H12.1765C12.3529 10.8193 12.4706 10.7009 12.4706 10.5234V9.93146C12.4706 9.75389 12.3529 9.63551 12.1765 9.63551H9.82353C9.64706 9.63551 9.52941 9.75389 9.52941 9.93146ZM1 17.8629V11.4112C3.82353 12.3878 7.26471 12.9502 11 12.9502C14.7353 12.9502 18.1765 12.3878 21 11.4112V17.8629C21 18.514 20.4706 19.0467 19.8235 19.0467H2.17647C1.52941 19.0467 1 18.514 1 17.8629ZM12.4706 14.8146V14.2227C12.4706 14.0452 12.3529 13.9268 12.1765 13.9268H9.82353C9.64706 13.9268 9.52941 14.0452 9.52941 14.2227V14.8146C9.52941 14.9922 9.64706 15.1106 9.82353 15.1106H12.1765C12.3529 15.1106 12.4706 14.9922 12.4706 14.8146Z" fill="#307DF1"/>
</svg>
