<svg width="20" height="20" viewBox="0 0 20 20" fill="none" xmlns="http://www.w3.org/2000/svg">
<path d="M18.75 20H17.5V5.01463H18.75C19.1016 5.01463 19.3978 5.13496 19.6387 5.37561C19.8796 5.61626 20 5.9122 20 6.26341V18.7512C20 19.0894 19.8796 19.3821 19.6387 19.6293C19.3978 19.8764 19.1016 20 18.75 20ZM16.25 20H3.75V5.01463H5V3.76585C5 2.7252 5.36458 1.8374 6.09375 1.10244C6.82292 0.36748 7.70833 0 8.75 0H11.25C12.2917 0 13.1771 0.36748 13.9062 1.10244C14.6354 1.8374 15 2.7252 15 3.76585V5.01463H16.25V20ZM12.5 3.76585C12.5 3.41463 12.3763 3.1187 12.1289 2.87805C11.8815 2.6374 11.5885 2.51707 11.25 2.51707H8.75C8.39844 2.51707 8.10221 2.6374 7.86133 2.87805C7.62044 3.1187 7.5 3.41463 7.5 3.76585V5.01463H12.5V3.76585ZM0 18.7512V6.26341C0 5.9122 0.120443 5.61626 0.361328 5.37561C0.602214 5.13496 0.898438 5.01463 1.25 5.01463H2.5V20H1.25C0.898438 20 0.602214 19.8764 0.361328 19.6293C0.120443 19.3821 0 19.0894 0 18.7512Z" fill="white"/>
</svg>
