<svg width="30" height="30" viewBox="0 0 30 30" fill="none" xmlns="http://www.w3.org/2000/svg">
<g clip-path="url(#clip0_422:417)">
<path d="M29.7118 16.3363L26.4831 13.0841V7.8335C26.4831 7.82847 26.4824 7.82358 26.4823 7.81855C26.4821 7.79751 26.4807 7.77673 26.4791 7.75596C26.4782 7.74458 26.4777 7.73319 26.4764 7.72195C26.474 7.70117 26.4705 7.68079 26.467 7.66041C26.465 7.64943 26.4635 7.63831 26.4613 7.62746C26.4568 7.60642 26.4511 7.58578 26.4453 7.56527C26.4397 7.54568 26.4336 7.52636 26.4269 7.50718C26.4207 7.48918 26.4146 7.47118 26.4073 7.45358C26.4013 7.43916 26.3943 7.4254 26.3877 7.41137C26.3812 7.39774 26.3751 7.38398 26.3681 7.37061C26.3611 7.35725 26.3532 7.34441 26.3455 7.33131C26.3375 7.31781 26.3296 7.30418 26.321 7.29108C26.3133 7.2793 26.3051 7.26792 26.2969 7.25654C26.287 7.24278 26.2771 7.22915 26.2665 7.21579C26.2584 7.2056 26.2501 7.19581 26.2416 7.18588C26.2298 7.17212 26.2177 7.15875 26.2051 7.14565C26.1966 7.13692 26.1882 7.12832 26.1794 7.11985C26.1658 7.10675 26.1518 7.09404 26.1373 7.0816C26.1285 7.07393 26.1196 7.06639 26.1105 7.05898C26.0956 7.04707 26.0804 7.03595 26.0648 7.02484C26.0549 7.01782 26.0452 7.01068 26.035 7.00406C26.0201 6.99427 26.0046 6.98514 25.9891 6.97614C25.9775 6.96939 25.966 6.96238 25.9541 6.95602C25.9402 6.94861 25.9257 6.94213 25.9113 6.93538C25.897 6.92863 25.883 6.92162 25.8683 6.91566C25.8565 6.91077 25.8442 6.9068 25.8321 6.90243C25.8145 6.89595 25.7971 6.8892 25.7791 6.88377C25.7786 6.88364 25.7781 6.88338 25.7775 6.88324L10.5047 2.27011V1.68442C10.5047 1.13631 10.0604 0.691948 9.51226 0.691948H6.90207C6.35396 0.691948 5.9096 1.13631 5.9096 1.68442V2.71857L0.380213 7.05236C0.0470077 7.31358 -0.0837337 7.75728 0.0544182 8.15731C0.19257 8.55747 0.569312 8.82597 0.992501 8.82597H5.90946V21.9287L0.286656 27.6181C0.00532393 27.9028 -0.0775143 28.3288 0.0767818 28.6983C0.231078 29.0677 0.592337 29.3082 0.992634 29.3082H16.0317C16.44 29.3082 16.8065 29.0582 16.9557 28.6782C17.1047 28.2981 17.0059 27.8655 16.7066 27.588L10.5049 21.8365V8.82597H24.4982V13.0819L21.2464 16.3337C20.9626 16.6175 20.8776 17.0444 21.0313 17.4152C21.1849 17.7861 21.5468 18.0279 21.9482 18.0279H29.0074C29.4081 18.0279 29.7696 17.7869 29.9237 17.4169C30.0777 17.0469 29.9942 16.6207 29.7118 16.3363ZM3.86749 6.84103L5.9096 5.24037V6.84103H3.86749ZM5.9096 24.7525V27.3231H3.36887L5.9096 24.7525ZM13.502 27.3232H10.5047V24.5437L13.502 27.3232ZM10.5047 6.84103V4.34358L18.7728 6.84103H10.5047ZM24.3443 16.0431L25.4881 14.8992L26.6236 16.0431H24.3443Z" fill="white"/>
</g>
<defs>
<clipPath id="clip0_422:417">
<rect width="30" height="30" fill="white"/>
</clipPath>
</defs>
</svg>
