<svg width="40" height="35" viewBox="0 0 40 35" fill="none" xmlns="http://www.w3.org/2000/svg">
<path d="M36.675 20.598L39.9579 6.37923C40.1949 5.35261 39.4022 4.375 38.3326 4.375H11.0561L10.4196 1.31182C10.261 0.548311 9.57847 0 8.78674 0H1.66667C0.746181 0 0 0.734521 0 1.64062V2.73438C0 3.64048 0.746181 4.375 1.66667 4.375H6.51965L11.398 27.852C10.2309 28.5127 9.44445 29.7515 9.44445 31.1719C9.44445 33.2861 11.1856 35 13.3333 35C15.4811 35 17.2222 33.2861 17.2222 31.1719C17.2222 30.1004 16.7745 29.1324 16.0539 28.4375H30.6127C29.8922 29.1324 29.4445 30.1004 29.4445 31.1719C29.4445 33.2861 31.1856 35 33.3333 35C35.4811 35 37.2222 33.2861 37.2222 31.1719C37.2222 29.6562 36.3272 28.3464 35.0292 27.7262L35.4124 26.0667C35.6494 25.0401 34.8567 24.0625 33.7872 24.0625H15.147L14.6925 21.875H35.0498C35.828 21.875 36.5026 21.3449 36.675 20.598Z" fill="#307DF1"/>
</svg>
