<svg width="30" height="30" viewBox="0 0 30 30" fill="none" xmlns="http://www.w3.org/2000/svg">
<path d="M17.4327 9.72565H16.2286C16.1211 9.72565 16.018 9.68294 15.942 9.60692C15.866 9.53089 15.8232 9.42777 15.8232 9.32025C15.8232 9.21273 15.866 9.10962 15.942 9.03359C16.018 8.95756 16.1211 8.91485 16.2286 8.91485H17.4327C17.5402 8.91485 17.6433 8.95756 17.7194 9.03359C17.7954 9.10962 17.8381 9.21273 17.8381 9.32025C17.8381 9.42777 17.7954 9.53089 17.7194 9.60692C17.6433 9.68294 17.5402 9.72565 17.4327 9.72565Z" fill="#307DF1"/>
<path d="M28.3781 29.1892H1.62136C1.40632 29.1892 1.20008 29.1038 1.04803 28.9517C0.895971 28.7996 0.810547 28.5934 0.810547 28.3784V9.32026C0.810547 9.21274 0.853259 9.10962 0.929287 9.03359C1.00532 8.95756 1.10843 8.91485 1.21595 8.91485H9.37676C9.48428 8.91485 9.5874 8.95756 9.66343 9.03359C9.73946 9.10962 9.78217 9.21274 9.78217 9.32026C9.78217 9.42778 9.73946 9.53089 9.66343 9.60692C9.5874 9.68295 9.48428 9.72566 9.37676 9.72566H1.62136V28.3784H28.3781V9.72566H20.27C20.1625 9.72566 20.0594 9.68295 19.9833 9.60692C19.9073 9.53089 19.8646 9.42778 19.8646 9.32026C19.8646 9.21274 19.9073 9.10962 19.9833 9.03359C20.0594 8.95756 20.1625 8.91485 20.27 8.91485H28.7835C28.891 8.91485 28.9942 8.95756 29.0702 9.03359C29.1462 9.10962 29.1889 9.21274 29.1889 9.32026V28.3784C29.1889 28.5934 29.1035 28.7996 28.9514 28.9517C28.7994 29.1038 28.5932 29.1892 28.3781 29.1892Z" fill="#307DF1"/>
<path d="M13.3906 9.72565H12.215C12.1075 9.72565 12.0043 9.68294 11.9283 9.60692C11.8523 9.53089 11.8096 9.42777 11.8096 9.32025C11.8096 9.21273 11.8523 9.10962 11.9283 9.03359C12.0043 8.95756 12.1075 8.91485 12.215 8.91485H13.3906C13.4982 8.91485 13.6013 8.95756 13.6773 9.03359C13.7533 9.10962 13.796 9.21273 13.796 9.32025C13.796 9.42777 13.7533 9.53089 13.6773 9.60692C13.6013 9.68294 13.4982 9.72565 13.3906 9.72565Z" fill="#307DF1"/>
<path d="M17.4327 9.72565H16.2286C16.1211 9.72565 16.018 9.68294 15.942 9.60692C15.866 9.53089 15.8232 9.42777 15.8232 9.32025C15.8232 9.21273 15.866 9.10962 15.942 9.03359C16.018 8.95756 16.1211 8.91485 16.2286 8.91485H17.4327C17.5402 8.91485 17.6433 8.95756 17.7194 9.03359C17.7954 9.10962 17.8381 9.21273 17.8381 9.32025C17.8381 9.42777 17.7954 9.53089 17.7194 9.60692C17.6433 9.68294 17.5402 9.72565 17.4327 9.72565Z" fill="#307DF1"/>
<path d="M9.37676 9.72567H1.21595C1.10843 9.72567 1.00532 9.68296 0.929287 9.60693C0.853259 9.5309 0.810547 9.42779 0.810547 9.32027V4.04999C0.810547 3.83495 0.895971 3.62872 1.04803 3.47666C1.20008 3.3246 1.40632 3.23918 1.62136 3.23918H5.87811C5.98563 3.23918 6.08875 3.28189 6.16478 3.35792C6.24081 3.43395 6.28352 3.53706 6.28352 3.64458C6.28352 3.7521 6.24081 3.85522 6.16478 3.93125C6.08875 4.00728 5.98563 4.04999 5.87811 4.04999H1.62136V8.91486H9.37676C9.48428 8.91486 9.5874 8.95757 9.66343 9.0336C9.73946 9.10963 9.78217 9.21275 9.78217 9.32027C9.78217 9.42779 9.73946 9.5309 9.66343 9.60693C9.5874 9.68296 9.48428 9.72567 9.37676 9.72567Z" fill="#307DF1"/>
<path d="M13.3906 9.72565H12.215C12.1075 9.72565 12.0043 9.68294 11.9283 9.60692C11.8523 9.53089 11.8096 9.42777 11.8096 9.32025C11.8096 9.21273 11.8523 9.10962 11.9283 9.03359C12.0043 8.95756 12.1075 8.91485 12.215 8.91485H13.3906C13.4982 8.91485 13.6013 8.95756 13.6773 9.03359C13.7533 9.10962 13.796 9.21273 13.796 9.32025C13.796 9.42777 13.7533 9.53089 13.6773 9.60692C13.6013 9.68294 13.4982 9.72565 13.3906 9.72565Z" fill="#307DF1"/>
<path d="M28.7832 9.72567H20.2697C20.1621 9.72567 20.059 9.68296 19.983 9.60693C19.907 9.5309 19.8643 9.42779 19.8643 9.32027C19.8643 9.21275 19.907 9.10963 19.983 9.0336C20.059 8.95757 20.1621 8.91486 20.2697 8.91486H28.3778V4.04999H24.121C24.0135 4.04999 23.9104 4.00728 23.8343 3.93125C23.7583 3.85522 23.7156 3.7521 23.7156 3.64458C23.7156 3.53706 23.7583 3.43395 23.8343 3.35792C23.9104 3.28189 24.0135 3.23918 24.121 3.23918H28.3778C28.5928 3.23918 28.799 3.3246 28.9511 3.47666C29.1032 3.62872 29.1886 3.83495 29.1886 4.04999V9.32027C29.1886 9.42779 29.1459 9.5309 29.0698 9.60693C28.9938 9.68296 28.8907 9.72567 28.7832 9.72567Z" fill="#307DF1"/>
<path d="M21.4868 4.04999H8.5138C8.40628 4.04999 8.30317 4.00728 8.22714 3.93125C8.15111 3.85522 8.1084 3.7521 8.1084 3.64458C8.1084 3.53706 8.15111 3.43395 8.22714 3.35792C8.30317 3.28189 8.40628 3.23918 8.5138 3.23918H21.4868C21.5943 3.23918 21.6974 3.28189 21.7734 3.35792C21.8495 3.43395 21.8922 3.53706 21.8922 3.64458C21.8922 3.7521 21.8495 3.85522 21.7734 3.93125C21.6974 4.00728 21.5943 4.04999 21.4868 4.04999Z" fill="#307DF1"/>
<path d="M23.826 6.48164H21.782C21.5961 6.48153 21.4179 6.40764 21.2865 6.27621C21.155 6.14478 21.0812 5.96656 21.0811 5.78069V1.50691C21.0813 1.32107 21.1552 1.1429 21.2866 1.0115C21.418 0.880092 21.5962 0.806174 21.782 0.805959H23.826C24.0119 0.806174 24.19 0.880092 24.3215 1.0115C24.4529 1.1429 24.5268 1.32107 24.527 1.50691V5.78069C24.5269 5.96656 24.453 6.14478 24.3216 6.27621C24.1901 6.40764 24.0119 6.48153 23.826 6.48164ZM21.8919 5.67082H23.7162V1.61677H21.8919V5.67082Z" fill="#307DF1"/>
<path d="M8.21765 6.48164H6.1736C5.98773 6.48153 5.80951 6.40764 5.67808 6.27621C5.54665 6.14478 5.47276 5.96656 5.47266 5.78069V1.50691C5.47287 1.32107 5.54679 1.1429 5.6782 1.0115C5.8096 0.880092 5.98776 0.806174 6.1736 0.805959H8.21765C8.40349 0.806174 8.58165 0.880092 8.71306 1.0115C8.84446 1.1429 8.91838 1.32107 8.9186 1.50691V5.78069C8.91849 5.96656 8.8446 6.14478 8.71318 6.27621C8.58175 6.40764 8.40352 6.48153 8.21765 6.48164ZM6.28347 5.67082H8.10779V1.61677H6.28347V5.67082Z" fill="#307DF1"/>
<path d="M24.9943 15.5384H22.8432C22.6626 15.538 22.4895 15.4661 22.3618 15.3384C22.2341 15.2106 22.1623 15.0375 22.1621 14.8569V12.7058C22.1623 12.5252 22.2341 12.3521 22.3618 12.2244C22.4895 12.0968 22.6626 12.0249 22.8432 12.0247H24.9943C25.1748 12.0249 25.348 12.0968 25.4756 12.2244C25.6033 12.3521 25.6751 12.5252 25.6754 12.7058V14.8569C25.6751 15.0375 25.6033 15.2106 25.4757 15.3384C25.348 15.4661 25.1749 15.538 24.9943 15.5384ZM22.9729 14.7276H24.8645V12.8355H22.9729V14.7276Z" fill="#307DF1"/>
<path d="M19.048 15.5384H16.8969C16.7163 15.538 16.5432 15.4661 16.4155 15.3384C16.2878 15.2106 16.216 15.0375 16.2158 14.8569V12.7058C16.216 12.5252 16.2879 12.3521 16.4155 12.2244C16.5432 12.0968 16.7163 12.0249 16.8969 12.0247H19.048C19.2286 12.0249 19.4017 12.0968 19.5295 12.2244C19.6572 12.3521 19.7291 12.5252 19.7295 12.7058V14.8569C19.7292 15.0376 19.6574 15.2108 19.5296 15.3385C19.4019 15.4663 19.2287 15.5382 19.048 15.5384ZM17.0266 14.7276H18.9187V12.8355H17.0266V14.7276Z" fill="#307DF1"/>
<path d="M13.1021 15.5384H10.951C10.7703 15.5382 10.5971 15.4663 10.4694 15.3385C10.3416 15.2108 10.2697 15.0376 10.2695 14.8569V12.7058C10.2699 12.5252 10.3418 12.3521 10.4695 12.2244C10.5973 12.0968 10.7704 12.0249 10.951 12.0247H13.1021C13.2827 12.0249 13.4558 12.0968 13.5835 12.2244C13.7111 12.3521 13.783 12.5252 13.7832 12.7058V14.8569C13.783 15.0375 13.7111 15.2106 13.5835 15.3384C13.4558 15.4661 13.2827 15.538 13.1021 15.5384ZM11.0803 14.7276H12.9724V12.8355H11.0803V14.7276Z" fill="#307DF1"/>
<path d="M24.9943 20.8087H22.8432C22.6626 20.8083 22.4895 20.7364 22.3618 20.6087C22.2341 20.4809 22.1623 20.3078 22.1621 20.1272V17.9761C22.1623 17.7955 22.2341 17.6224 22.3618 17.4947C22.4895 17.3671 22.6626 17.2952 22.8432 17.295H24.9943C25.1748 17.2952 25.348 17.3671 25.4756 17.4947C25.6033 17.6224 25.6751 17.7955 25.6754 17.9761V20.1272C25.6751 20.3078 25.6033 20.4809 25.4757 20.6087C25.348 20.7364 25.1749 20.8083 24.9943 20.8087ZM22.9729 19.9979H24.8645V18.1058H22.9729V19.9979Z" fill="#307DF1"/>
<path d="M19.048 20.8087H16.8969C16.7163 20.8083 16.5432 20.7364 16.4155 20.6087C16.2878 20.4809 16.216 20.3078 16.2158 20.1272V17.9761C16.216 17.7955 16.2879 17.6224 16.4155 17.4947C16.5432 17.3671 16.7163 17.2952 16.8969 17.295H19.048C19.2286 17.2952 19.4017 17.3671 19.5295 17.4947C19.6572 17.6224 19.7291 17.7955 19.7295 17.9761V20.1272C19.7292 20.3079 19.6574 20.4811 19.5296 20.6088C19.4019 20.7366 19.2287 20.8085 19.048 20.8087ZM17.0266 19.9979H18.9187V18.1058H17.0266V19.9979Z" fill="#307DF1"/>
<path d="M13.1021 20.8087H10.951C10.7703 20.8085 10.5971 20.7366 10.4694 20.6088C10.3416 20.4811 10.2697 20.3079 10.2695 20.1272V17.9761C10.2699 17.7955 10.3418 17.6224 10.4695 17.4947C10.5973 17.3671 10.7704 17.2952 10.951 17.295H13.1021C13.2827 17.2952 13.4558 17.3671 13.5835 17.4947C13.7111 17.6224 13.783 17.7955 13.7832 17.9761V20.1272C13.783 20.3078 13.7111 20.4809 13.5835 20.6087C13.4558 20.7364 13.2827 20.8083 13.1021 20.8087ZM11.0803 19.9979H12.9724V18.1058H11.0803V19.9979Z" fill="#307DF1"/>
<path d="M7.15736 20.8087H5.00628C4.82567 20.8083 4.65256 20.7364 4.52489 20.6087C4.39722 20.4809 4.32541 20.3078 4.3252 20.1272V17.9761C4.32541 17.7955 4.39724 17.6224 4.52492 17.4947C4.6526 17.3671 4.82571 17.2952 5.00628 17.295H7.15736C7.33793 17.2952 7.51104 17.3671 7.63872 17.4947C7.7664 17.6224 7.83823 17.7955 7.83844 17.9761V20.1272C7.83823 20.3078 7.76642 20.4809 7.63875 20.6087C7.51108 20.7364 7.33797 20.8083 7.15736 20.8087ZM5.13601 19.9979H7.02763V18.1058H5.13601V19.9979Z" fill="#307DF1"/>
<path d="M19.048 26.0789H16.8969C16.7163 26.0786 16.5432 26.0067 16.4155 25.8789C16.2878 25.7512 16.216 25.578 16.2158 25.3974V23.2464C16.216 23.0658 16.2879 22.8927 16.4155 22.765C16.5432 22.6373 16.7163 22.5655 16.8969 22.5653H19.048C19.2286 22.5655 19.4017 22.6373 19.5295 22.765C19.6572 22.8926 19.7291 23.0657 19.7295 23.2464V25.3974C19.7292 25.5781 19.6574 25.7513 19.5296 25.8791C19.4019 26.0068 19.2287 26.0787 19.048 26.0789ZM17.0266 25.2681H18.9187V23.3761H17.0266V25.2681Z" fill="#307DF1"/>
<path d="M13.1021 26.0789H10.951C10.7703 26.0787 10.5971 26.0068 10.4694 25.8791C10.3416 25.7513 10.2697 25.5781 10.2695 25.3974V23.2464C10.2699 23.0657 10.3418 22.8926 10.4695 22.765C10.5973 22.6373 10.7704 22.5655 10.951 22.5653H13.1021C13.2827 22.5655 13.4558 22.6373 13.5835 22.765C13.7111 22.8927 13.783 23.0658 13.7832 23.2464V25.3974C13.783 25.578 13.7111 25.7512 13.5835 25.8789C13.4558 26.0067 13.2827 26.0786 13.1021 26.0789ZM11.0803 25.2681H12.9724V23.3761H11.0803V25.2681Z" fill="#307DF1"/>
<path d="M7.15736 26.0789H5.00628C4.82567 26.0786 4.65256 26.0067 4.52489 25.8789C4.39722 25.7512 4.32541 25.578 4.3252 25.3974V23.2464C4.32541 23.0658 4.39724 22.8927 4.52492 22.765C4.6526 22.6373 4.82571 22.5655 5.00628 22.5653H7.15736C7.33793 22.5655 7.51104 22.6373 7.63872 22.765C7.7664 22.8927 7.83823 23.0658 7.83844 23.2464V25.3974C7.83823 25.578 7.76642 25.7512 7.63875 25.8789C7.51108 26.0067 7.33797 26.0786 7.15736 26.0789ZM5.13601 25.2681H7.02763V23.3761H5.13601V25.2681Z" fill="#307DF1"/>
</svg>
