<svg width="20" height="20" viewBox="0 0 20 20" fill="none" xmlns="http://www.w3.org/2000/svg">
<path d="M14.6875 4.6875C14.0403 4.6875 13.5156 4.16285 13.5156 3.51562V1.17188C13.5156 0.524648 14.0403 0 14.6875 0C15.3347 0 15.8594 0.524648 15.8594 1.17188V3.51562C15.8594 4.16285 15.3347 4.6875 14.6875 4.6875Z" fill="#307DF1"/>
<path d="M17.8516 2.34375H17.0312V3.51562C17.0312 4.80797 15.9798 5.85938 14.6875 5.85938C13.3952 5.85938 12.3438 4.80797 12.3438 3.51562V2.34375H7.65625V3.51562C7.65625 4.80797 6.60484 5.85938 5.3125 5.85938C4.02016 5.85938 2.96875 4.80797 2.96875 3.51562V2.34375H2.14844C0.963789 2.34375 0 3.30754 0 4.49219V7.10938H20V4.49219C20 3.30754 19.0362 2.34375 17.8516 2.34375Z" fill="#307DF1"/>
<path d="M5.3125 4.6875C4.66527 4.6875 4.14062 4.16285 4.14062 3.51562V1.17188C4.14062 0.524648 4.66527 0 5.3125 0C5.95973 0 6.48438 0.524648 6.48438 1.17188V3.51562C6.48438 4.16285 5.95973 4.6875 5.3125 4.6875Z" fill="#307DF1"/>
<path d="M0 8.28125V17.8516C0 19.0362 0.963789 20 2.14844 20H17.8516C19.0362 20 20 19.0362 20 17.8516V8.28125H0ZM10.6158 15.8984C10.6158 17.1908 9.56437 18.2422 8.27203 18.2422C7.10922 18.2422 6.11137 17.3748 5.95082 16.2246C5.93586 16.1173 5.92828 16.0076 5.92828 15.8984C5.92828 15.5748 6.19063 15.3125 6.51422 15.3125C6.83781 15.3125 7.10016 15.5748 7.10016 15.8984C7.10016 15.9536 7.10398 16.0088 7.11148 16.0627C7.1916 16.6371 7.69055 17.0703 8.27203 17.0703C8.9182 17.0703 9.44391 16.5446 9.44391 15.8984C9.44391 15.2523 8.9182 14.7266 8.27203 14.7266C7.94844 14.7266 7.68609 14.4642 7.68609 14.1406C7.68609 13.817 7.94844 13.5547 8.27203 13.5547C8.9182 13.5547 9.44391 13.029 9.44391 12.3828C9.44391 11.7366 8.9182 11.2109 8.27203 11.2109C7.7132 11.2109 7.22961 11.608 7.12215 12.155C7.05973 12.4726 6.75148 12.6794 6.4343 12.6171C6.11676 12.5547 5.90988 12.2467 5.97227 11.9292C6.18734 10.834 7.15453 10.0391 8.27203 10.0391C9.56437 10.0391 10.6158 11.0905 10.6158 12.3828C10.6158 13.0823 10.3073 13.7108 9.8198 14.1406C10.3073 14.5704 10.6158 15.1989 10.6158 15.8984ZM14.0717 17.6562C14.0717 17.9798 13.8094 18.2422 13.4858 18.2422C13.1622 18.2422 12.8998 17.9798 12.8998 17.6562V11.2109H11.9829C11.6593 11.2109 11.397 10.9486 11.397 10.625C11.397 10.3014 11.6593 10.0391 11.9829 10.0391H13.4858C13.8094 10.0391 14.0717 10.3014 14.0717 10.625V17.6562Z" fill="#307DF1"/>
</svg>
