<svg width="30" height="30" viewBox="0 0 30 30" fill="none" xmlns="http://www.w3.org/2000/svg">
<path d="M10.5 15C10.5 13.8065 10.9741 12.6619 11.818 11.818C12.6619 10.9741 13.8065 10.5 15 10.5C16.1935 10.5 17.3381 10.9741 18.182 11.818C19.0259 12.6619 19.5 13.8065 19.5 15C19.5 16.1935 19.0259 17.3381 18.182 18.182C17.3381 19.0259 16.1935 19.5 15 19.5C13.8065 19.5 12.6619 19.0259 11.818 18.182C10.9741 17.3381 10.5 16.1935 10.5 15Z" fill="#307DF1"/>
<path d="M10.1759 4.239C10.3633 3.86653 10.6504 3.55343 11.0054 3.33465C11.3603 3.11587 11.769 3.00001 12.1859 3H17.8319C18.25 3.00001 18.6598 3.11651 19.0154 3.33642C19.3709 3.55633 19.6582 3.87095 19.8449 4.245L20.7224 6H23.2574C24.252 6 25.2058 6.39509 25.9091 7.09835C26.6124 7.80161 27.0074 8.75544 27.0074 9.75V21.75C27.0074 22.7446 26.6124 23.6984 25.9091 24.4016C25.2058 25.1049 24.252 25.5 23.2574 25.5H6.75745C5.76288 25.5 4.80906 25.1049 4.1058 24.4016C3.40253 23.6984 3.00745 22.7446 3.00745 21.75V9.75C3.00745 8.75544 3.40253 7.80161 4.1058 7.09835C4.80906 6.39509 5.76288 6 6.75745 6H9.29245L10.1759 4.239ZM14.9999 9C13.4086 9 11.8825 9.63214 10.7573 10.7574C9.63209 11.8826 8.99995 13.4087 8.99995 15C8.99995 16.5913 9.63209 18.1174 10.7573 19.2426C11.8825 20.3679 13.4086 21 14.9999 21C16.5912 21 18.1174 20.3679 19.2426 19.2426C20.3678 18.1174 20.9999 16.5913 20.9999 15C20.9999 13.4087 20.3678 11.8826 19.2426 10.7574C18.1174 9.63214 16.5912 9 14.9999 9Z" fill="#307DF1"/>
</svg>
