<svg width="20" height="18" viewBox="0 0 20 18" fill="none" xmlns="http://www.w3.org/2000/svg">
<path d="M20 4.58723V8.13863C17.2059 9.17445 13.7353 9.76635 10 9.76635C6.26471 9.76635 2.79412 9.17445 0 8.13863V4.58723C0 3.93614 0.529412 3.40343 1.17647 3.40343H6.02941V2.51558C6.02941 1.15421 7.14706 0 8.52941 0H11.4706C12.8529 0 13.9706 1.15421 13.9706 2.51558V3.40343H18.8235C19.4706 3.40343 20 3.93614 20 4.58723ZM7.5 2.51558V3.40343H12.5V2.51558C12.5 1.95327 12.0294 1.47975 11.4706 1.47975H8.52941C7.97059 1.47975 7.5 1.95327 7.5 2.51558ZM8.52941 7.93146V8.52336C8.52941 8.70093 8.64706 8.81931 8.82353 8.81931H11.1765C11.3529 8.81931 11.4706 8.70093 11.4706 8.52336V7.93146C11.4706 7.75389 11.3529 7.63551 11.1765 7.63551H8.82353C8.64706 7.63551 8.52941 7.75389 8.52941 7.93146ZM0 15.8629V9.41121C2.82353 10.3878 6.26471 10.9502 10 10.9502C13.7353 10.9502 17.1765 10.3878 20 9.41121V15.8629C20 16.514 19.4706 17.0467 18.8235 17.0467H1.17647C0.529412 17.0467 0 16.514 0 15.8629ZM11.4706 12.8146V12.2227C11.4706 12.0452 11.3529 11.9268 11.1765 11.9268H8.82353C8.64706 11.9268 8.52941 12.0452 8.52941 12.2227V12.8146C8.52941 12.9922 8.64706 13.1106 8.82353 13.1106H11.1765C11.3529 13.1106 11.4706 12.9922 11.4706 12.8146Z" fill="#307DF1"/>
</svg>
