<svg width="20" height="20" viewBox="0 0 20 20" fill="none" xmlns="http://www.w3.org/2000/svg">
<g clip-path="url(#clip0_143_80)">
<path d="M10 7.29166C9.53917 7.29166 9.16667 6.91916 9.16667 6.45833V4.16666C9.16667 2.78833 8.045 1.66666 6.66667 1.66666C5.28833 1.66666 4.16667 2.78833 4.16667 4.16666V6.45833C4.16667 6.91916 3.79417 7.29166 3.33333 7.29166C2.8725 7.29166 2.5 6.91916 2.5 6.45833V4.16666C2.5 1.86916 4.36917 -7.62939e-06 6.66667 -7.62939e-06C8.96417 -7.62939e-06 10.8333 1.86916 10.8333 4.16666V6.45833C10.8333 6.91916 10.4608 7.29166 10 7.29166Z" fill="#307DF1"/>
<path d="M11.4583 16.6667H1.875C0.841667 16.6667 0 15.825 0 14.7917V7.70833C0 6.675 0.841667 5.83333 1.875 5.83333H11.4583C12.4917 5.83333 13.3333 6.675 13.3333 7.70833V14.7917C13.3333 15.825 12.4917 16.6667 11.4583 16.6667Z" fill="#307DF1"/>
<path d="M6.66667 -7.62939e-06C4.36917 -7.62939e-06 2.5 1.86916 2.5 4.16666V5.83333H4.16667V4.16666C4.16667 2.78833 5.28833 1.66666 6.66667 1.66666V-7.62939e-06Z" fill="#307DF1"/>
<path d="M6.66667 5.83333H4.16667H2.5H1.875C0.841667 5.83333 0 6.675 0 7.70833V14.7917C0 15.825 0.841667 16.6667 1.875 16.6667H6.66667V5.83333Z" fill="#307DF1"/>
<path d="M19.3563 16.5675C18.9513 16.3483 18.4455 16.4992 18.2271 16.9025C17.748 17.785 16.8313 18.3333 15.8338 18.3333C15.3246 18.3333 14.843 18.1792 14.4205 17.9225L14.818 17.525C14.9963 17.3467 15.0496 17.0775 14.9538 16.8442C14.8563 16.6108 14.628 16.4583 14.3763 16.4583H12.293C11.948 16.4583 11.668 16.7383 11.668 17.0833V19.1667C11.668 19.4192 11.8205 19.6467 12.0538 19.7442C12.1313 19.7758 12.2121 19.7917 12.293 19.7917C12.4555 19.7917 12.6155 19.7283 12.7346 19.6083L13.2121 19.1308C13.9605 19.69 14.8771 20 15.8338 20C17.4438 20 18.9221 19.1175 19.6913 17.6967C19.9113 17.2917 19.7605 16.7867 19.3563 16.5675Z" fill="#307DF1"/>
<path d="M19.6147 11.5058C19.3822 11.41 19.1122 11.4625 18.9338 11.6417L18.4563 12.1192C17.7072 11.56 16.7913 11.25 15.8338 11.25C14.2205 11.25 12.7413 12.1367 11.9747 13.5633C11.7563 13.9692 11.9088 14.4742 12.3138 14.6925C12.4397 14.76 12.5747 14.7917 12.708 14.7917C13.0047 14.7917 13.2922 14.6325 13.443 14.3533C13.9188 13.4667 14.8355 12.9167 15.8338 12.9167C16.343 12.9167 16.8247 13.0708 17.2472 13.3275L16.8505 13.725C16.6722 13.9033 16.6188 14.1725 16.7147 14.4058C16.8122 14.6392 17.0405 14.7917 17.2922 14.7917H19.3755C19.7205 14.7917 20.0005 14.5117 20.0005 14.1667V12.0833C20.0005 11.8308 19.848 11.6033 19.6147 11.5058Z" fill="#307DF1"/>
<path d="M14.3763 16.4583H12.293C11.948 16.4583 11.668 16.7383 11.668 17.0833V19.1667C11.668 19.4192 11.8205 19.6467 12.0538 19.7442C12.1313 19.7758 12.2121 19.7917 12.293 19.7917C12.4555 19.7917 12.6155 19.7283 12.7346 19.6083L13.2121 19.1308C13.9613 19.69 14.878 20 15.8346 20V18.3333C15.3255 18.3333 14.8438 18.1792 14.4213 17.9225L14.8188 17.525C14.9971 17.3467 15.0505 17.0775 14.9546 16.8442C14.8563 16.6108 14.6288 16.4583 14.3763 16.4583Z" fill="#307DF1"/>
<path d="M15.8338 11.25C14.2205 11.25 12.7413 12.1367 11.9747 13.5633C11.7563 13.9692 11.9088 14.4742 12.3138 14.6925C12.4397 14.76 12.5747 14.7917 12.708 14.7917C13.0047 14.7917 13.2922 14.6325 13.443 14.3533C13.9188 13.4667 14.8355 12.9167 15.8338 12.9167V11.25Z" fill="#307DF1"/>
</g>
<defs>
<clipPath id="clip0_143_80">
<rect width="20" height="20" fill="white"/>
</clipPath>
</defs>
</svg>
