<svg width="30" height="30" viewBox="0 0 30 30" fill="none" xmlns="http://www.w3.org/2000/svg">
<path d="M20.5664 8.78906H9.43359V7.25684C8.37211 6.71607 7.67578 5.61984 7.67578 4.39453C7.67578 2.61756 9.12146 1.17188 10.8984 1.17188C11.3024 1.17188 11.6955 1.2477 12.0652 1.39477C12.7792 0.527051 13.8548 0 15 0C16.1452 0 17.2208 0.527051 17.9348 1.39477C18.3045 1.2477 18.6976 1.17188 19.1016 1.17188C20.8785 1.17188 22.3242 2.61756 22.3242 4.39453C22.3242 5.61979 21.6279 6.71607 20.5664 7.25684V8.78906Z" fill="white"/>
<path d="M12.3633 19.4307V20.2149C12.3633 21.6711 13.5438 22.8516 15 22.8516C16.4562 22.8516 17.6367 21.6711 17.6367 20.2149V19.4307C16.8182 19.7476 15.9291 19.9219 15 19.9219C14.0709 19.9219 13.1818 19.7476 12.3633 19.4307Z" fill="white"/>
<path d="M9.43359 10.5469V12.5977C9.43359 15.667 11.9307 18.1641 15 18.1641C18.0693 18.1641 20.5664 15.667 20.5664 12.5977V10.5469H9.43359Z" fill="white"/>
<path d="M15 24.6094C12.5769 24.6094 10.6055 22.638 10.6055 20.2148V19.9219H10.3125C6.59104 19.9219 3.57422 22.9387 3.57422 26.6602V29.1211C3.57422 29.6065 3.96773 30 4.45312 30H7.67578V27.832C7.67578 27.3466 8.0693 26.9531 8.55469 26.9531C9.04008 26.9531 9.43359 27.3466 9.43359 27.832V30H15.8789V24.521C15.5948 24.5788 15.3009 24.6094 15 24.6094ZM13.8281 28.125C13.3427 28.125 12.9492 27.7315 12.9492 27.2461C12.9492 26.7607 13.3427 26.3672 13.8281 26.3672C14.3135 26.3672 14.707 26.7607 14.707 27.2461C14.707 27.7315 14.3135 28.125 13.8281 28.125Z" fill="white"/>
<path d="M19.6875 19.9219H19.3945V20.2148C19.3945 21.6495 18.7034 22.9255 17.6367 23.7281V30H20.5664V27.832C20.5664 27.3466 20.9599 26.9531 21.4453 26.9531C21.9307 26.9531 22.3242 27.3466 22.3242 27.832V30H25.5469C26.0323 30 26.4258 29.6065 26.4258 29.1211V26.6602C26.4258 22.9387 23.409 19.9219 19.6875 19.9219Z" fill="white"/>
</svg>
