<svg width="22" height="22" viewBox="0 0 22 22" fill="none" xmlns="http://www.w3.org/2000/svg">
<g clip-path="url(#clip0_226:17)">
<path d="M19.8 2.2H18.7V1.1C18.7 0.44 18.26 0 17.6 0C16.94 0 16.5 0.44 16.5 1.1V2.2H5.5V1.1C5.5 0.44 5.06 0 4.4 0C3.74 0 3.3 0.44 3.3 1.1V2.2H1.1C0.55 2.2 0 2.64 0 3.3V18.7C0 19.36 0.55 19.8 1.1 19.8H7.81C7.04 18.48 6.6 16.94 6.6 15.4C6.6 10.56 10.56 6.6 15.4 6.6C17.49 6.6 19.36 7.37 20.9 8.58V3.3C20.9 2.75 20.35 2.2 19.8 2.2Z" fill="white"/>
<path d="M15.3988 8.8C11.7688 8.8 8.79883 11.77 8.79883 15.4C8.79883 19.03 11.7688 22 15.3988 22C19.0288 22 21.9988 19.03 21.9988 15.4C21.9988 11.77 19.0288 8.8 15.3988 8.8ZM17.5988 16.5H15.3988C14.7388 16.5 14.2988 16.06 14.2988 15.4V12.1C14.2988 11.44 14.7388 11 15.3988 11C16.0588 11 16.4988 11.44 16.4988 12.1V14.3H17.5988C18.2588 14.3 18.6988 14.74 18.6988 15.4C18.6988 16.06 18.2588 16.5 17.5988 16.5Z" fill="white"/>
</g>
<defs>
<clipPath id="clip0_226:17">
<rect width="22" height="22" fill="white"/>
</clipPath>
</defs>
</svg>
