<svg width="16" height="20" viewBox="0 0 16 20" fill="none" xmlns="http://www.w3.org/2000/svg">
<path d="M1.38939 7.113L2.49039 18.021C2.55139 18.482 4.77739 19.998 8.00039 20C11.2254 19.998 13.4514 18.482 13.5114 18.021L14.6134 7.113C12.9294 8.055 10.4124 8.5 8.00039 8.5C5.59039 8.5 3.07239 8.055 1.38939 7.113ZM11.1684 1.51L10.3094 0.559C9.97739 0.086 9.61739 0 8.91639 0H7.08539C6.38539 0 6.02439 0.086 5.69339 0.559L4.83439 1.51C2.26439 1.959 0.400391 3.15 0.400391 4.029V4.199C0.400391 5.746 3.80339 7 8.00039 7C12.1984 7 15.6014 5.746 15.6014 4.199V4.029C15.6014 3.15 13.7384 1.959 11.1684 1.51ZM10.0704 4.34L9.00039 3H7.00039L5.93239 4.34H4.23239C4.23239 4.34 6.09439 2.119 6.34339 1.818C6.53339 1.588 6.72739 1.5 6.97939 1.5H9.02239C9.27539 1.5 9.46939 1.588 9.65939 1.818C9.90739 2.119 11.7704 4.34 11.7704 4.34H10.0704Z" fill="#404040"/>
</svg>
