<svg width="30" height="30" viewBox="0 0 30 30" fill="none" xmlns="http://www.w3.org/2000/svg">
<path d="M19.8436 4.87275L16.9924 3.92346C16.8856 3.8879 16.7928 3.81968 16.7269 3.72846C16.6611 3.63724 16.6257 3.52764 16.6257 3.4152V1.80805C16.6257 1.66597 16.6822 1.52971 16.7828 1.42924C16.8834 1.32877 17.0198 1.27233 17.162 1.27233H19.3073C18.9696 0.822581 18.4988 0.490363 17.9616 0.322737C17.4244 0.15511 16.848 0.160574 16.3141 0.338353C15.7801 0.516133 15.3157 0.857215 14.9866 1.31329C14.6576 1.76936 14.4805 2.31729 14.4805 2.87948V4.56853L19.8436 5.46144V4.87275Z" fill="white"/>
<path d="M17.6982 3.02908L19.8435 3.74333V2.87948C19.8434 2.69951 19.825 2.52002 19.7886 2.34377H17.6982V3.02908Z" fill="white"/>
<path d="M18.312 8.31139L17.2796 6.59207C17.1918 6.4474 17.0528 6.34089 16.8902 6.2936C16.7276 6.24631 16.5532 6.26168 16.4013 6.33667C16.3195 6.37756 16.2468 6.4347 16.1878 6.50459C16.1288 6.57449 16.0847 6.65567 16.0582 6.74318C16.0317 6.83068 16.0233 6.92267 16.0336 7.01352C16.0438 7.10437 16.0726 7.19218 16.118 7.27156V7.27156L17.4742 9.64291H20.9171V8.57148H18.7719C18.6792 8.57148 18.5882 8.54752 18.5076 8.50194C18.427 8.45636 18.3596 8.39071 18.312 8.31139Z" fill="white"/>
<path d="M19.3069 20.893V15.4019C19.3064 15.0113 19.1509 14.6368 18.8744 14.3606C18.5979 14.0844 18.223 13.9291 17.832 13.9286H12.8711V14.0626C12.8714 14.3111 12.9703 14.5494 13.1463 14.7252C13.3222 14.901 13.5608 14.9998 13.8096 15.0001H17.1616C17.3039 15.0001 17.4403 15.0565 17.5409 15.157C17.6414 15.2575 17.6979 15.3937 17.6979 15.5358V20.893H19.3069Z" fill="white"/>
<path d="M16.7951 10.5681C16.7563 10.532 16.723 10.4903 16.6965 10.4444L15.1856 7.80313C15.0218 7.51757 14.9424 7.19144 14.9568 6.86264C14.9712 6.53384 15.0787 6.21587 15.2668 5.94566C14.9632 6.02145 14.6848 6.17527 14.4591 6.39185C14.2335 6.60843 14.0685 6.88023 13.9806 7.18022L12.4937 12.8572H16.2094L16.7951 10.5681Z" fill="white"/>
<path d="M28.4244 10.7143H27.8887V12.3215H28.4244V10.7143Z" fill="white"/>
<path d="M27.6082 21.7635L25.8441 13.3929H24.6703V15.5358C24.6703 15.6416 24.6389 15.745 24.5802 15.833C23.9385 16.7925 23.5966 17.9207 23.5977 19.0745V21.8773C24.8692 21.3214 26.3072 21.2806 27.6082 21.7635V21.7635Z" fill="white"/>
<path d="M9.65368 8.57148H5.89947V0.535717C5.89947 0.393636 5.84297 0.257374 5.74239 0.156908C5.64181 0.0564416 5.50539 0 5.36316 0H1.07263V3.2143H4.82684V8.57148H0V9.64291H9.65368V8.57148Z" fill="white"/>
<path d="M23.0612 11.7858C23.3574 11.7858 23.5975 11.5459 23.5975 11.2501C23.5975 10.9542 23.3574 10.7143 23.0612 10.7143C22.765 10.7143 22.5249 10.9542 22.5249 11.2501C22.5249 11.5459 22.765 11.7858 23.0612 11.7858Z" fill="white"/>
<path d="M23.5977 9.13096C23.5975 8.98262 23.5385 8.8404 23.4334 8.73551C23.3284 8.63063 23.186 8.57163 23.0375 8.57147H21.9888V9.64291H23.5977V9.13096Z" fill="white"/>
<path d="M16.626 16.0715H10.7266V17.1429H16.626V16.0715Z" fill="white"/>
<path d="M10.19 20.893H8.04477C6.57345 20.8947 5.15574 21.4448 4.06908 22.4357C2.98241 23.4265 2.30501 24.7867 2.16943 26.2501H10.19C10.9012 26.2501 11.5833 25.9679 12.0862 25.4656C12.5891 24.9633 12.8716 24.282 12.8716 23.5716C12.8716 22.8612 12.5891 22.1798 12.0862 21.6775C11.5833 21.1752 10.9012 20.893 10.19 20.893V20.893ZM6.97214 24.1073C6.97214 24.2494 6.91563 24.3856 6.81506 24.4861C6.71448 24.5866 6.57806 24.643 6.43582 24.643C6.29358 24.643 6.15717 24.5866 6.05659 24.4861C5.95601 24.3856 5.89951 24.2494 5.89951 24.1073V22.5001C5.89951 22.358 5.95601 22.2218 6.05659 22.1213C6.15717 22.0209 6.29358 21.9644 6.43582 21.9644C6.57806 21.9644 6.71448 22.0209 6.81506 22.1213C6.91563 22.2218 6.97214 22.358 6.97214 22.5001V24.1073ZM9.1174 24.1073C9.1174 24.2494 9.0609 24.3856 8.96032 24.4861C8.85974 24.5866 8.72332 24.643 8.58108 24.643C8.43884 24.643 8.30243 24.5866 8.20185 24.4861C8.10127 24.3856 8.04477 24.2494 8.04477 24.1073V22.5001C8.04477 22.358 8.10127 22.2218 8.20185 22.1213C8.30243 22.0209 8.43884 21.9644 8.58108 21.9644C8.72332 21.9644 8.85974 22.0209 8.96032 22.1213C9.0609 22.2218 9.1174 22.358 9.1174 22.5001V24.1073ZM11.2627 24.1073C11.2627 24.2494 11.2062 24.3856 11.1056 24.4861C11.005 24.5866 10.8686 24.643 10.7263 24.643C10.5841 24.643 10.4477 24.5866 10.3471 24.4861C10.2465 24.3856 10.19 24.2494 10.19 24.1073V22.5001C10.19 22.358 10.2465 22.2218 10.3471 22.1213C10.4477 22.0209 10.5841 21.9644 10.7263 21.9644C10.8686 21.9644 11.005 22.0209 11.1056 22.1213C11.2062 22.2218 11.2627 22.358 11.2627 22.5001V24.1073Z" fill="white"/>
<path d="M15.7102 25.0218L15.3249 24.6369C15.0563 24.3701 14.8434 24.0528 14.6985 23.7032C14.5536 23.3537 14.4795 22.9789 14.4805 22.6006C14.4816 22.1537 14.5862 21.7132 14.7863 21.3136C14.9864 20.9139 15.2764 20.5659 15.6336 20.297L16.6258 19.5537V18.2144H5.04901L3.55932 19.7024L1.60895 18.9231V17.143H9.65368V10.7143H0V17.143H0.536315V19.2858C0.536314 19.3929 0.568432 19.4975 0.628526 19.5862C0.68862 19.6748 0.773932 19.7435 0.873457 19.7832L2.73414 20.5265L2.49755 20.7629C1.02445 22.2259 0.141391 24.1789 0.0164916 26.2501H1.09308C1.23029 24.5018 2.02194 22.8693 3.31028 21.6778C4.59862 20.4864 6.28905 19.8237 8.04473 19.8215H10.19C10.936 19.821 11.6652 20.0427 12.2845 20.4582C12.9038 20.8738 13.3849 21.4643 13.6666 22.1543C13.9482 22.8443 14.0175 23.6026 13.8656 24.3322C13.7137 25.0617 13.3475 25.7295 12.8138 26.2501H20.4068C20.4431 25.8864 20.5168 25.5274 20.6268 25.1787H16.0895C16.019 25.1787 15.9493 25.1649 15.8842 25.1379C15.8191 25.111 15.76 25.0716 15.7102 25.0218V25.0218ZM2.14526 12.8572C2.14526 12.7151 2.20177 12.5789 2.30235 12.4784C2.40292 12.3779 2.53934 12.3215 2.68158 12.3215C2.82382 12.3215 2.96023 12.3779 3.06081 12.4784C3.16139 12.5789 3.21789 12.7151 3.21789 12.8572V13.9287H6.43579V12.8572C6.43579 12.7151 6.49229 12.5789 6.59287 12.4784C6.69345 12.3779 6.82986 12.3215 6.9721 12.3215C7.11434 12.3215 7.25075 12.3779 7.35133 12.4784C7.45191 12.5789 7.50842 12.7151 7.50842 12.8572V14.4644C7.50842 14.6064 7.45191 14.7427 7.35133 14.8432C7.25075 14.9436 7.11434 15.0001 6.9721 15.0001H2.68158C2.53934 15.0001 2.40292 14.9436 2.30235 14.8432C2.20177 14.7427 2.14526 14.6064 2.14526 14.4644V12.8572Z" fill="white"/>
<path d="M25.7428 22.5001C24.6982 22.5015 23.6898 22.883 22.9063 23.5732C22.1228 24.2634 21.6178 25.215 21.4858 26.2501H29.9998C29.8678 25.215 29.3629 24.2634 28.5794 23.5732C27.7959 22.883 26.7875 22.5015 25.7428 22.5001V22.5001Z" fill="white"/>
<path d="M25.7437 28.9287C25.2682 28.9281 24.8063 28.77 24.4304 28.4792C24.0545 28.1884 23.7858 27.7813 23.6663 27.3216H22.5713C22.6979 28.0705 23.086 28.7505 23.6667 29.2408C24.2474 29.7311 24.9833 30.0002 25.7437 30.0002C26.5041 30.0002 27.2399 29.7311 27.8206 29.2408C28.4013 28.7505 28.7894 28.0705 28.916 27.3216H27.821C27.7015 27.7813 27.4328 28.1884 27.0569 28.4792C26.681 28.77 26.2191 28.9281 25.7437 28.9287Z" fill="white"/>
<path d="M25.7434 27.8573C25.9315 27.857 26.1161 27.8074 26.2789 27.7134C26.4417 27.6194 26.5769 27.4842 26.6709 27.3216H24.8159C24.9099 27.4842 25.0451 27.6194 25.2079 27.7134C25.3707 27.8074 25.5554 27.857 25.7434 27.8573Z" fill="white"/>
<path d="M17.6982 21.9644V24.1073H20.8449H20.9161V23.2577L19.6213 21.9644H17.6982Z" fill="white"/>
<path d="M7.50831 28.9287C7.03284 28.9281 6.571 28.77 6.19509 28.4792C5.81919 28.1884 5.55045 27.7813 5.43096 27.3216H4.33594C4.46255 28.0705 4.85064 28.7505 5.43137 29.2408C6.01209 29.7311 6.74791 30.0002 7.50831 30.0002C8.26871 30.0002 9.00453 29.7311 9.58525 29.2408C10.166 28.7505 10.5541 28.0705 10.6807 27.3216H9.58566C9.46617 27.7813 9.19743 28.1884 8.82153 28.4792C8.44562 28.77 7.98378 28.9281 7.50831 28.9287V28.9287Z" fill="white"/>
<path d="M8.43604 27.3216H6.58105C6.67488 27.4844 6.81002 27.6197 6.97285 27.7137C7.13568 27.8078 7.32045 27.8573 7.50855 27.8573C7.69664 27.8573 7.88141 27.8078 8.04424 27.7137C8.20707 27.6197 8.34221 27.4844 8.43604 27.3216V27.3216Z" fill="white"/>
<path d="M23.0612 8.03576C23.2035 8.03576 23.3399 7.97932 23.4405 7.87885C23.541 7.77839 23.5975 7.64212 23.5975 7.50004V7.11473L24.7265 7.39665L25.2011 10.7143H24.5779C24.6735 10.9836 24.6954 11.2735 24.6412 11.554C24.5869 11.8345 24.4586 12.0955 24.2695 12.3098C24.3133 12.3173 24.3576 12.3212 24.402 12.3215H26.8154V10.7143H26.2785C26.2787 10.689 26.2771 10.6637 26.2737 10.6385L25.7374 6.88852C25.7223 6.78312 25.6761 6.68459 25.6047 6.60553C25.5333 6.52646 25.4399 6.47044 25.3365 6.44461L23.5975 6.01035V5.35717C23.5975 5.21509 23.541 5.07883 23.4405 4.97836C23.3399 4.8779 23.2035 4.82146 23.0612 4.82146C22.919 4.82146 22.7826 4.8779 22.682 4.97836C22.5814 5.07883 22.5249 5.21509 22.5249 5.35717V7.50004C22.5249 7.64212 22.5814 7.77839 22.682 7.87885C22.7826 7.97932 22.919 8.03576 23.0612 8.03576Z" fill="white"/>
</svg>
