<svg width="16" height="20" viewBox="0 0 16 20" fill="none" xmlns="http://www.w3.org/2000/svg">
<path d="M8.00007 0.767853C12.2311 0.767853 15.6608 4.1975 15.6608 8.42857C15.6608 11.6657 13.3861 15.1936 8.89578 19.0499C8.6461 19.2643 8.32776 19.3821 7.9986 19.3819C7.66944 19.3816 7.3513 19.2632 7.102 19.0483L6.805 18.7906C2.51343 15.0349 0.339355 11.5934 0.339355 8.42857C0.339355 4.1975 3.769 0.767853 8.00007 0.767853ZM8.00007 5.48214C7.21863 5.48214 6.46919 5.79256 5.91663 6.34513C5.36407 6.89769 5.05364 7.64713 5.05364 8.42857C5.05364 9.21001 5.36407 9.95944 5.91663 10.512C6.46919 11.0646 7.21863 11.375 8.00007 11.375C8.78151 11.375 9.53095 11.0646 10.0835 10.512C10.6361 9.95944 10.9465 9.21001 10.9465 8.42857C10.9465 7.64713 10.6361 6.89769 10.0835 6.34513C9.53095 5.79256 8.78151 5.48214 8.00007 5.48214Z" fill="#307DF1"/>
</svg>
