<svg width="48" height="48" viewBox="0 0 48 48" fill="none" xmlns="http://www.w3.org/2000/svg">
<path d="M14 24L21.5 31.5L34 19" stroke="#307DF1" stroke-width="2" stroke-linecap="round" stroke-linejoin="round"/>
<path d="M1.5 24C1.5 21.0453 2.08198 18.1194 3.21271 15.3896C4.34344 12.6598 6.00078 10.1794 8.0901 8.0901C10.1794 6.00078 12.6598 4.34344 15.3896 3.21271C18.1194 2.08198 21.0453 1.5 24 1.5C26.9547 1.5 29.8806 2.08198 32.6104 3.21271C35.3402 4.34344 37.8206 6.00078 39.9099 8.0901C41.9992 10.1794 43.6566 12.6598 44.7873 15.3896C45.918 18.1194 46.5 21.0453 46.5 24C46.5 29.9674 44.1295 35.6903 39.9099 39.9099C35.6903 44.1295 29.9674 46.5 24 46.5C18.0326 46.5 12.3097 44.1295 8.0901 39.9099C3.87053 35.6903 1.5 29.9674 1.5 24V24Z" stroke="#307DF1" stroke-width="2" stroke-linecap="round"/>
</svg>
