<svg width="20" height="20" viewBox="0 0 20 20" fill="none" xmlns="http://www.w3.org/2000/svg">
<g clip-path="url(#clip0_198:255)">
<path d="M20 14.7123C20 14.35 19.8244 14.0473 19.5745 13.8975V8.27699C19.6311 8.251 19.6664 8.18603 19.6657 8.11342C19.6657 8.0408 19.6267 7.97659 19.5719 7.9529L10.0217 3.8627C9.8996 3.80996 9.76615 3.80996 9.64339 3.8627L0.0944339 7.95366C0.038408 7.97736 0.000637656 8.04156 8.15107e-06 8.11418C-0.000621354 8.1868 0.0352604 8.25177 0.0906568 8.27776L9.6264 12.7845C9.75922 12.8465 9.9059 12.8465 10.0387 12.7845L18.916 8.58657V13.8967C18.6667 14.0458 18.4911 14.3508 18.4911 14.7108C18.4911 15.0869 18.6799 15.4132 18.95 15.5531C18.6799 16.2006 18.4911 17.529 18.4911 17.9082C18.4911 18.4134 18.8291 18.8231 19.2452 18.8231C19.6607 18.8231 19.9987 18.4134 19.9987 17.9082C19.9987 17.529 19.8093 16.2006 19.5398 15.5531C19.8105 15.4148 20 15.0884 20 14.7123Z" fill="#404040"/>
<path d="M3.07715 10.5472C3.07778 11.8436 3.07841 13.3693 3.07841 13.6116C3.07841 16.0255 6.07044 17.9907 9.83299 18.1138C13.5949 17.9907 16.587 16.0278 16.587 13.6116C16.587 13.3708 16.587 11.8444 16.5882 10.5472L10.0376 13.6437C9.90476 13.7064 9.75808 13.7064 9.62526 13.6437L3.07715 10.5472Z" fill="#404040"/>
</g>
<defs>
<clipPath id="clip0_198:255">
<rect width="20" height="20" fill="white"/>
</clipPath>
</defs>
</svg>
