<svg width="30" height="30" viewBox="0 0 30 30" fill="none" xmlns="http://www.w3.org/2000/svg">
<path d="M11.6008 15C11.6008 15.8702 11.9465 16.7048 12.5619 17.3202C13.1772 17.9355 14.0118 18.2812 14.8821 18.2812C15.7523 18.2812 16.5869 17.9355 17.2023 17.3202C17.8176 16.7048 18.1633 15.8702 18.1633 15C18.1633 14.1298 17.8176 13.2952 17.2023 12.6798C16.5869 12.0645 15.7523 11.7188 14.8821 11.7188C14.0118 11.7188 13.1772 12.0645 12.5619 12.6798C11.9465 13.2952 11.6008 14.1298 11.6008 15ZM27.6028 14.2441C24.8254 8.39356 20.6272 5.44922 14.9993 5.44922C9.3684 5.44922 5.17308 8.39355 2.39574 14.2471C2.28434 14.483 2.22656 14.7406 2.22656 15.0015C2.22656 15.2623 2.28434 15.52 2.39574 15.7559C5.17308 21.6064 9.37133 24.5508 14.9993 24.5508C20.6301 24.5508 24.8254 21.6064 27.6028 15.7529C27.8284 15.2783 27.8284 14.7275 27.6028 14.2441ZM14.8821 20.1562C12.0344 20.1562 9.72582 17.8477 9.72582 15C9.72582 12.1523 12.0344 9.84375 14.8821 9.84375C17.7297 9.84375 20.0383 12.1523 20.0383 15C20.0383 17.8477 17.7297 20.1562 14.8821 20.1562Z" fill="#404040"/>
</svg>
