<svg width="22" height="16" viewBox="0 0 22 16" fill="none" xmlns="http://www.w3.org/2000/svg">
<path d="M21.271 7.76625C20.4623 5.67463 19.0586 3.8658 17.2331 2.56331C15.4077 1.26082 13.2406 0.521769 10.9997 0.4375C8.75881 0.521769 6.59172 1.26082 4.76628 2.56331C2.94084 3.8658 1.53707 5.67463 0.728458 7.76625C0.673847 7.9173 0.673847 8.0827 0.728458 8.23375C1.53707 10.3254 2.94084 12.1342 4.76628 13.4367C6.59172 14.7392 8.75881 15.4782 10.9997 15.5625C13.2406 15.4782 15.4077 14.7392 17.2331 13.4367C19.0586 12.1342 20.4623 10.3254 21.271 8.23375C21.3256 8.0827 21.3256 7.9173 21.271 7.76625ZM10.9997 12.4688C10.1159 12.4688 9.25189 12.2067 8.517 11.7156C7.78212 11.2246 7.20935 10.5267 6.87112 9.71012C6.53289 8.89356 6.4444 7.99504 6.61682 7.12819C6.78925 6.26134 7.21486 5.46508 7.83982 4.84012C8.46479 4.21515 9.26104 3.78954 10.1279 3.61712C10.9948 3.44469 11.8933 3.53318 12.7098 3.87141C13.5264 4.20964 14.2243 4.78241 14.7153 5.5173C15.2064 6.25218 15.4685 7.11616 15.4685 8C15.4666 9.18463 14.9952 10.3202 14.1576 11.1579C13.3199 11.9955 12.1843 12.4669 10.9997 12.4688Z" fill="#307DF1"/>
</svg>
