<svg width="22" height="22" viewBox="0 0 22 22" fill="none" xmlns="http://www.w3.org/2000/svg">
<g clip-path="url(#clip0_87_32)">
<path d="M14.1239 15.7485C14.0371 15.6437 13.9078 15.5833 13.7717 15.5833H8.2269C8.09081 15.5833 7.96148 15.6437 7.87464 15.7485C7.78737 15.8532 7.75153 15.9911 7.77615 16.1249C8.43504 19.694 9.70038 22 10.9993 22C12.2982 22 13.5635 19.694 14.2224 16.1249C14.247 15.9911 14.2112 15.8532 14.1239 15.7485Z" fill="#307DF1"/>
<path d="M21.4778 7.652C21.4174 7.46221 21.241 7.33331 21.0414 7.33331H15.8803C15.7509 7.33331 15.6274 7.38792 15.5405 7.48413C15.4533 7.58038 15.4112 7.70881 15.4242 7.83772C15.5303 8.89045 15.584 9.95483 15.584 11C15.584 12.0451 15.5303 13.1095 15.4242 14.1622C15.4112 14.2911 15.4533 14.4196 15.5405 14.5158C15.6274 14.612 15.7509 14.6666 15.8803 14.6666H21.0414C21.2411 14.6666 21.4174 14.5377 21.4778 14.3479C21.8247 13.2617 22.0006 12.1355 22.0006 11C22.0006 9.86447 21.8247 8.73834 21.4778 7.652Z" fill="#307DF1"/>
<path d="M15.1805 6.03445C15.2176 6.2551 15.4088 6.41671 15.6325 6.41671H20.2589C20.4204 6.41671 20.5704 6.3312 20.6532 6.19245C20.7356 6.05323 20.7387 5.88093 20.6613 5.73904C19.2853 3.21772 16.9216 1.29714 14.1752 0.469994C13.9983 0.415381 13.8036 0.475795 13.686 0.621287C13.5691 0.76721 13.5521 0.969077 13.643 1.13197C14.3108 2.32882 14.8425 4.02386 15.1805 6.03445Z" fill="#307DF1"/>
<path d="M14.0374 7.33335H7.95998C7.72588 7.33335 7.52939 7.50969 7.50434 7.74246C7.39021 8.80056 7.33203 9.89669 7.33203 11C7.33203 12.1034 7.39021 13.1995 7.50434 14.2576C7.52939 14.4904 7.72588 14.6667 7.95998 14.6667H14.0374C14.2715 14.6667 14.468 14.4904 14.493 14.2576C14.6071 13.1995 14.6653 12.1034 14.6653 11C14.6653 9.89669 14.6071 8.80056 14.493 7.74246C14.468 7.50969 14.2715 7.33335 14.0374 7.33335Z" fill="#307DF1"/>
<path d="M1.74157 6.41666H6.36788C6.59166 6.41666 6.78279 6.2551 6.81996 6.03441C7.15791 4.02381 7.68964 2.32878 8.35742 1.13193C8.4483 0.96899 8.43128 0.767122 8.31445 0.621243C8.19719 0.476223 8.00336 0.414907 7.82525 0.46995C5.07882 1.29714 2.71507 3.21772 1.33916 5.73904C1.26173 5.88093 1.26487 6.05327 1.34724 6.19245C1.43004 6.3312 1.57996 6.41666 1.74157 6.41666Z" fill="#307DF1"/>
<path d="M6.46009 14.5158C6.54736 14.4196 6.58943 14.2912 6.57645 14.1622C6.47036 13.1095 6.41665 12.0451 6.41665 11C6.41665 9.95487 6.47036 8.8905 6.57645 7.83776C6.58943 7.70885 6.54736 7.58038 6.46009 7.48417C6.37325 7.38792 6.24972 7.33335 6.12038 7.33335H0.959191C0.759559 7.33335 0.583215 7.46226 0.522801 7.65205C0.175914 8.73834 0 9.86447 0 11C0 12.1355 0.175914 13.2617 0.522801 14.348C0.583215 14.5378 0.759559 14.6667 0.959191 14.6667H6.12038C6.24972 14.6667 6.37325 14.6121 6.46009 14.5158Z" fill="#307DF1"/>
<path d="M6.81991 15.9656C6.78274 15.7449 6.59162 15.5833 6.36784 15.5833H1.74157C1.58 15.5833 1.43004 15.6689 1.34724 15.8076C1.26487 15.9468 1.26173 16.1191 1.33916 16.261C2.71507 18.7823 5.07878 20.7029 7.82521 21.53C7.86861 21.5435 7.91295 21.5497 7.95725 21.5497C8.09376 21.5497 8.22581 21.4884 8.31445 21.3788C8.43128 21.2328 8.4483 21.031 8.35742 20.8681C7.6896 19.6712 7.15786 17.9761 6.81991 15.9656Z" fill="#307DF1"/>
<path d="M20.2588 15.5833H15.6325C15.4088 15.5833 15.2176 15.7449 15.1805 15.9656C14.8425 17.9762 14.3108 19.6712 13.643 20.8681C13.5521 21.031 13.5691 21.2329 13.686 21.3788C13.7746 21.4884 13.9066 21.5497 14.0432 21.5497C14.087 21.5497 14.1318 21.5435 14.1752 21.53C16.9216 20.7029 19.2854 18.7823 20.6613 16.261C20.7387 16.1191 20.7356 15.9468 20.6532 15.8076C20.5703 15.6688 20.4204 15.5833 20.2588 15.5833Z" fill="#307DF1"/>
<path d="M7.87558 6.25152C7.96242 6.35628 8.09175 6.4167 8.22783 6.4167H13.7726C13.9087 6.4167 14.038 6.35628 14.1249 6.25152C14.2121 6.14677 14.248 6.00892 14.2233 5.87512C13.5645 2.306 12.2991 0 11.0002 0C9.70132 0 8.43597 2.306 7.77713 5.87507C7.75251 6.00892 7.78831 6.14677 7.87558 6.25152Z" fill="#307DF1"/>
</g>
<defs>
<clipPath id="clip0_87_32">
<rect width="22" height="22" fill="white"/>
</clipPath>
</defs>
</svg>
