<svg width="30" height="30" viewBox="0 0 30 30" fill="none" xmlns="http://www.w3.org/2000/svg">
<path d="M10.9727 14.8076C11.4441 15.4898 11.3032 14.9213 11.3032 28.5184C11.3032 29.7351 12.6914 30.4315 13.6698 29.7037C17.8506 26.5515 18.686 26.2786 18.686 24.8042C18.686 14.8957 18.5705 15.453 19.0164 14.8076L25.8056 5.56631H4.18359L10.9727 14.8076Z" fill="white"/>
<path d="M28.3707 0.753516C28.1282 0.288867 27.6524 0 27.1286 0H2.86166C1.73051 0 1.06494 1.276 1.71381 2.20312C1.71914 2.21203 1.64016 2.10393 2.89271 3.80859H27.0975C28.1649 2.35588 28.8784 1.72822 28.3707 0.753516Z" fill="white"/>
</svg>
