<svg width="30" height="30" viewBox="0 0 30 30" fill="none" xmlns="http://www.w3.org/2000/svg">
<path d="M22.7354 22.2921C20.8155 22.2921 19.2324 23.8415 19.2324 25.7951C19.2324 27.7149 20.7818 29.298 22.7354 29.298C24.6552 29.298 26.2383 27.7486 26.2383 25.7951C26.2046 23.8752 24.6552 22.2921 22.7354 22.2921Z" fill="white"/>
<path d="M28.8992 5.58582C28.8319 5.58582 28.7308 5.55214 28.6298 5.55214H7.41006L7.07324 3.29544C6.87114 1.81343 5.59122 0.70192 4.07553 0.70192H1.34728C0.606277 0.70192 0 1.3082 0 2.0492C0 2.79021 0.606277 3.39649 1.34728 3.39649H4.07553C4.24394 3.39649 4.37867 3.53121 4.41235 3.69962L6.50064 17.9135C6.7701 19.6986 8.31947 21.0459 10.1383 21.0459H24.15C25.9015 21.0459 27.4172 19.7997 27.7877 18.0819L29.977 7.1352C30.1118 6.42787 29.6402 5.72055 28.8992 5.58582Z" fill="white"/>
<path d="M14.1468 25.6267C14.0794 23.7741 12.5301 22.2921 10.6775 22.2921C8.72398 22.3932 7.24197 24.0099 7.30934 25.9298C7.3767 27.7823 8.89239 29.2643 10.7449 29.2643H10.8123C12.7322 29.1633 14.2478 27.5465 14.1468 25.6267Z" fill="white"/>
</svg>
