<svg width="31" height="29" viewBox="0 0 31 29" fill="none" xmlns="http://www.w3.org/2000/svg">
<path fill-rule="evenodd" clip-rule="evenodd" d="M15.4677 4.7991L27.8417 17.166V25.8373C27.8417 26.6573 27.5157 27.4437 26.9356 28.0235C26.3555 28.6033 25.5686 28.929 24.7482 28.929H6.18724C5.3668 28.929 4.57995 28.6033 3.99981 28.0235C3.41967 27.4437 3.09375 26.6573 3.09375 25.8373V17.166L15.4677 4.7991ZM25.7793 3.16461V10.3786L21.6547 6.25634V3.16461C21.6547 2.89128 21.7633 2.62915 21.9567 2.43588C22.1501 2.24261 22.4124 2.13403 22.6859 2.13403H24.7482C25.0217 2.13403 25.2839 2.24261 25.4773 2.43588C25.6707 2.62915 25.7793 2.89128 25.7793 3.16461Z" fill="#307DF1"/>
<path fill-rule="evenodd" clip-rule="evenodd" d="M14.0107 1.10348C14.3974 0.717071 14.9219 0.5 15.4688 0.5C16.0156 0.5 16.5401 0.717071 16.9268 1.10348L30.6351 14.8019C30.8287 14.9954 30.9375 15.2579 30.9375 15.5316C30.9375 15.8052 30.8287 16.0677 30.6351 16.2612C30.4415 16.4547 30.1789 16.5634 29.905 16.5634C29.6312 16.5634 29.3686 16.4547 29.175 16.2612L15.4688 2.56071L1.76253 16.2612C1.5689 16.4547 1.30629 16.5634 1.03247 16.5634C0.758639 16.5634 0.496027 16.4547 0.302402 16.2612C0.108777 16.0677 0 15.8052 0 15.5316C0 15.2579 0.108777 14.9954 0.302402 14.8019L14.0107 1.10348Z" fill="#307DF1"/>
</svg>
