<svg width="15" height="20" viewBox="0 0 15 20" fill="none" xmlns="http://www.w3.org/2000/svg">
<path d="M13.6912 0H0.585938C0.262344 0 0 0.262344 0 0.585938V19.4141C0 19.7377 0.262344 20 0.585938 20H13.6912C14.0148 20 14.2771 19.7377 14.2771 19.4141V0.585938C14.2771 0.262344 14.0148 0 13.6912 0ZM3.90867 3.41066L4.6509 2.66844C4.87969 2.43965 5.2507 2.43965 5.47953 2.66844C5.70836 2.89723 5.70836 3.26824 5.47953 3.49707L4.32301 4.65359C4.20859 4.76801 4.05863 4.82523 3.90871 4.82523C3.75879 4.82523 3.60879 4.76801 3.49441 4.65359L2.80184 3.96102C2.57301 3.73223 2.57301 3.36121 2.80184 3.13238C3.03062 2.90359 3.40164 2.90359 3.63047 3.13238L3.90867 3.41066ZM11.061 6.18289C11.3846 6.18289 11.647 6.44523 11.647 6.76883C11.647 7.09242 11.3846 7.35477 11.061 7.35477H3.90477C3.58117 7.35477 3.31883 7.09242 3.31883 6.76883C3.31883 6.44523 3.58117 6.18289 3.90477 6.18289H11.061ZM6.69539 4.2393C6.69539 3.9157 6.95773 3.65336 7.28133 3.65336H11.061C11.3846 3.65336 11.647 3.9157 11.647 4.2393C11.647 4.56289 11.3846 4.82523 11.061 4.82523H7.28133C6.95773 4.82523 6.69539 4.56293 6.69539 4.2393ZM4.61918 11.493C4.61918 10.1038 5.74938 8.97359 7.13856 8.97359C8.52773 8.97359 9.65793 10.1038 9.65793 11.493C9.65793 12.0349 9.48539 12.5369 9.19312 12.9483C9.62039 13.432 9.88051 14.0666 9.88051 14.7612V16.9172C9.88051 17.2408 9.61816 17.5032 9.29457 17.5032H4.98254C4.65895 17.5032 4.3966 17.2408 4.3966 16.9172V14.7612C4.3966 14.0666 4.65672 13.432 5.08398 12.9483C4.79172 12.5369 4.61918 12.0349 4.61918 11.493Z" fill="#808080"/>
</svg>
