<svg width="30" height="30" viewBox="0 0 30 30" fill="none" xmlns="http://www.w3.org/2000/svg">
<g clip-path="url(#clip0_422:392)">
<path d="M14.3471 10.1879C13.778 10.4291 13.3251 10.882 13.0839 11.4511C13.0538 11.5264 12.9808 11.5757 12.8997 11.5757C12.8186 11.5757 12.7456 11.5264 12.7155 11.4511C12.4743 10.882 12.0213 10.4291 11.4523 10.1879C11.377 10.1577 11.3276 10.0848 11.3276 10.0037C11.3276 9.92257 11.377 9.84962 11.4523 9.81947C12.0213 9.57831 12.4743 9.12534 12.7155 8.55631C12.7456 8.48101 12.8186 8.43163 12.8997 8.43163C12.9808 8.43163 13.0538 8.48101 13.0839 8.55631C13.3251 9.12534 13.778 9.57831 14.3471 9.81947C14.4224 9.84962 14.4717 9.92257 14.4717 10.0037C14.4717 10.0848 14.4224 10.1577 14.3471 10.1879Z" fill="white"/>
<path d="M5.52632 2.10526C5.23564 2.10526 5 1.86962 5 1.57895V0.526314C5 0.235638 5.23564 -1.90735e-06 5.52632 -1.90735e-06C5.81699 -1.90735e-06 6.05263 0.235638 6.05263 0.526314V1.57895C6.05263 1.86962 5.81699 2.10526 5.52632 2.10526Z" fill="white"/>
<path d="M5.52632 5.26316C5.23564 5.26316 5 5.02752 5 4.73684V3.68421C5 3.39353 5.23564 3.15789 5.52632 3.15789C5.81699 3.15789 6.05263 3.39353 6.05263 3.68421V4.73684C6.05263 5.02752 5.81699 5.26316 5.52632 5.26316Z" fill="white"/>
<path d="M7.63168 3.15789H6.57905C6.28837 3.15789 6.05273 2.92225 6.05273 2.63158C6.05273 2.3409 6.28837 2.10526 6.57905 2.10526H7.63168C7.92236 2.10526 8.158 2.3409 8.158 2.63158C8.158 2.92225 7.92236 3.15789 7.63168 3.15789Z" fill="white"/>
<path d="M4.47397 3.15789H3.42134C3.13066 3.15789 2.89502 2.92225 2.89502 2.63158C2.89502 2.3409 3.13066 2.10526 3.42134 2.10526H4.47397C4.76464 2.10526 5.00028 2.3409 5.00028 2.63158C5.00028 2.92225 4.76464 3.15789 4.47397 3.15789Z" fill="white"/>
<path d="M28.4212 15C28.2084 15 28.0165 14.8717 27.9351 14.6751C27.8536 14.4785 27.8987 14.2521 28.0491 14.1016L28.8386 13.3121C29.0451 13.1127 29.3734 13.1155 29.5764 13.3185C29.7794 13.5215 29.7823 13.8498 29.5828 14.0563L28.7933 14.8458C28.6947 14.9445 28.5608 15 28.4212 15Z" fill="white"/>
<path d="M26.0526 17.3684C25.8397 17.3684 25.6479 17.2401 25.5664 17.0435C25.485 16.8469 25.53 16.6205 25.6805 16.47L26.4699 15.6805C26.6765 15.4811 27.0047 15.4839 27.2077 15.6869C27.4108 15.89 27.4136 16.2182 27.2142 16.4247L26.4247 17.2142C26.326 17.3129 26.1922 17.3684 26.0526 17.3684Z" fill="white"/>
<path d="M29.2102 17.3684C29.0706 17.3684 28.9368 17.3129 28.8381 17.2142L28.0486 16.4247C27.8492 16.2182 27.852 15.89 28.055 15.6869C28.258 15.4839 28.5863 15.4811 28.7928 15.6805L29.5823 16.47C29.7328 16.6205 29.7778 16.8469 29.6963 17.0435C29.6149 17.2401 29.423 17.3684 29.2102 17.3684Z" fill="white"/>
<path d="M26.8425 15C26.7029 15 26.5691 14.9445 26.4704 14.8458L25.6809 14.0563C25.4815 13.8498 25.4843 13.5215 25.6874 13.3185C25.8904 13.1155 26.2186 13.1127 26.4252 13.3121L27.2146 14.1016C27.3651 14.2521 27.4101 14.4785 27.3287 14.6751C27.2472 14.8717 27.0554 15 26.8425 15Z" fill="white"/>
<path d="M3.42108 17.8947H0.789499C0.498823 17.8947 0.263184 18.1304 0.263184 18.4211V29.4737C0.263184 29.7644 0.498823 30 0.789499 30H3.42108C3.71175 30 3.94739 29.7644 3.94739 29.4737V18.4211C3.94739 18.1304 3.71175 17.8947 3.42108 17.8947Z" fill="white"/>
<path d="M22.8948 1.57894H21.3159C21.0252 1.57894 20.7896 1.81458 20.7896 2.10526V4.30263L23.4211 6.57473V2.10526C23.4211 1.81458 23.1855 1.57894 22.8948 1.57894Z" fill="white"/>
<path d="M8.15774 10C8.15774 10.2907 7.92211 10.5263 7.63143 10.5263H6.5788V17.9374C7.56492 18.0549 8.49888 18.4445 9.27617 19.0626C9.57696 19.3024 9.90895 19.5002 10.263 19.6505V19.1053C10.233 16.5116 12.252 14.355 14.842 14.2142C16.1252 14.1696 17.3715 14.6486 18.2946 15.5412C19.2176 16.4338 19.7382 17.6633 19.7367 18.9474V23.1732L23.4209 21.9474V10.5263H18.1577C17.8671 10.5263 17.6314 10.2907 17.6314 10C17.6314 9.70932 17.8671 9.47368 18.1577 9.47368H25.163L19.8909 4.92L15.342 0.990526C15.1444 0.819948 14.8516 0.819948 14.6541 0.990526L4.83301 9.47368H7.63143C7.92211 9.47368 8.15774 9.70932 8.15774 10ZM9.73669 9.47368C11.1894 9.47194 12.3665 8.29476 12.3683 6.8421C12.3683 6.55143 12.6039 6.31579 12.8946 6.31579C13.1853 6.31579 13.4209 6.55143 13.4209 6.8421C13.4226 8.29476 14.5998 9.47194 16.0525 9.47368C16.3432 9.47368 16.5788 9.70932 16.5788 10C16.5788 10.2907 16.3432 10.5263 16.0525 10.5263C14.5998 10.5281 13.4226 11.7052 13.4209 13.1579C13.4209 13.4486 13.1853 13.6842 12.8946 13.6842C12.6039 13.6842 12.3683 13.4486 12.3683 13.1579C12.3665 11.7052 11.1894 10.5281 9.73669 10.5263C9.44602 10.5263 9.21038 10.2907 9.21038 10C9.21038 9.70932 9.44602 9.47368 9.73669 9.47368Z" fill="white"/>
<path d="M17.9528 23.6842C18.1221 23.6843 18.2903 23.6566 18.4506 23.6021L18.6843 23.5263V18.9474C18.6843 16.9126 17.0349 15.2632 15.0001 15.2632C12.9654 15.2632 11.3159 16.9126 11.3159 18.9474V19.9474C11.5248 19.9807 11.736 19.9983 11.9475 20H14.7001C15.8087 20.003 16.8353 20.5845 17.408 21.5337C17.4186 21.5506 17.4281 21.5682 17.4364 21.5863C17.8145 22.2189 17.8982 22.9848 17.6659 23.6842H17.9528Z" fill="white"/>
<path d="M29.5532 21.6795C29.5439 21.6673 29.5353 21.6546 29.5274 21.6416C29.2854 21.3484 28.8885 21.2335 28.5274 21.3521L24.1526 22.811L19.4158 24.39L18.7884 24.6005C18.5192 24.6916 18.2368 24.7377 17.9526 24.7368H13.2737C12.4424 24.7372 11.6297 24.9833 10.9379 25.4442L10.5568 25.7C10.3156 25.8622 9.98851 25.7981 9.82632 25.5568C9.66412 25.3156 9.72821 24.9885 9.96947 24.8263L10.3537 24.5684C11.2187 23.9925 12.2345 23.6849 13.2737 23.6842H16.4784C16.8314 23.2186 16.8467 22.5793 16.5163 22.0974C16.5111 22.0879 16.5047 22.0758 16.4989 22.0626C16.1155 21.4368 15.435 21.0546 14.7011 21.0526H11.9474C10.7372 21.0511 9.56336 20.6394 8.61737 19.8847C7.88729 19.3031 6.98734 18.9757 6.05421 18.9521H6.05263H6.04895C6.01474 18.9521 5.98053 18.9479 5.94368 18.9479H5V29.4737H17.7895C18.3687 29.4738 18.9368 29.3147 19.4316 29.0137L29.2947 23.0084C29.5159 22.8753 29.6702 22.6547 29.7195 22.4014C29.7687 22.1481 29.7083 21.8857 29.5532 21.6795Z" fill="white"/>
</g>
<defs>
<clipPath id="clip0_422:392">
<rect width="30" height="30" fill="white"/>
</clipPath>
</defs>
</svg>
