<svg width="20" height="12" viewBox="0 0 20 12" fill="none" xmlns="http://www.w3.org/2000/svg">
<path d="M4.83332 0.91668C4.16664 0.25 1.33332 0.0833594 0.416641 0C0.33332 0 0.249961 1.30385e-07 0.166641 0.0833204C0.0833203 0.16668 0 0.333359 0 0.41668V7.91668C0 8.16668 0.16668 8.33336 0.41668 8.33336H2.91668C3.08336 8.33336 3.25 8.25004 3.33336 8.08336C3.33336 7.83336 4.83336 3.41668 5.00004 1.25004C5 1.16668 5 1.00004 4.83332 0.91668Z" fill="#307DF1"/>
<path d="M13.7496 2.91668C12.9162 2.66668 12.1662 2.33336 11.4996 2.08336C9.99956 1.41668 9.33288 1.75004 7.99956 3.08336C7.41624 3.66668 6.99956 4.50004 7.08288 4.83336C7.08288 4.91668 7.08288 4.91668 7.24956 5.00004C7.66624 5.16672 8.24956 5.25004 8.83288 4.33336C8.9162 4.25004 8.99956 4.16668 9.1662 4.16668C9.4162 4.16668 9.49952 4.08336 9.74952 4C9.9162 3.91668 10.0828 3.83332 10.3328 3.75C10.4162 3.75 10.4162 3.75 10.4995 3.75C10.5828 3.75 10.7495 3.83332 10.8328 3.83332C11.2496 4.25004 11.9996 4.83336 12.7496 5.50004C13.9162 6.41672 15.0829 7.41672 15.6662 8.16672H15.7496C15.1662 6.50004 14.1662 3.66668 13.7496 2.91668Z" fill="#307DF1"/>
<path d="M19.5827 0.833359C16.3327 0.833359 14.4994 1.66668 14.416 1.66668C14.3327 1.75 14.2493 1.83336 14.166 1.91668C14.166 2 14.166 2.16668 14.2493 2.25C14.7493 3.08332 16.416 7.66668 16.666 8.83332C16.7493 9 16.916 9.16664 17.0827 9.16664H19.5827C19.8327 9.16664 19.9994 8.99996 19.9994 8.74996V1.24996C19.9994 1.00004 19.8327 0.833359 19.5827 0.833359Z" fill="#307DF1"/>
<path d="M15.0839 9.00004C14.7506 8.25004 13.3339 7.16672 12.0839 6.16672C11.4173 5.58336 10.7506 5.08336 10.2506 4.66668C10.1673 4.75 10.0006 4.75 10.0006 4.83336C9.75063 4.91668 9.6673 5.00004 9.33395 5.00004C8.6673 5.83336 7.83395 6.16668 6.9173 5.83336C6.50063 5.75004 6.25063 5.41668 6.1673 5.08336C6.00063 4.25004 6.75062 3.08336 7.33398 2.50004H5.6673C5.33398 4.16672 4.75063 6.33336 4.33398 7.50004C4.6673 7.83336 5.00066 8.25004 5.25066 8.41672C6.83398 9.75004 8.66734 11.0834 9.00066 11.3334C9.25066 11.5001 9.75066 11.6667 10.0007 11.6667C10.084 11.6667 10.1673 11.6667 10.2507 11.6667L8.9173 10.3334C8.75063 10.1667 8.75063 9.91668 8.9173 9.75004C9.08398 9.5834 9.33398 9.58336 9.50062 9.75004L11.1673 11.4167C11.334 11.5834 11.5006 11.5 11.6673 11.5C11.9173 11.4167 12.0006 11.25 12.084 11L10.1673 9.08336C10.0006 8.91668 10.0006 8.66668 10.1673 8.50004C10.334 8.3334 10.584 8.33336 10.7506 8.50004L12.8339 10.5834C12.9173 10.6667 13.2506 10.6667 13.5006 10.5834C13.5839 10.5 13.7506 10.4167 13.8339 10.25L11.5006 7.91668C11.3339 7.75 11.3339 7.5 11.5006 7.33336C11.6673 7.16672 11.9173 7.16668 12.0839 7.33336L14.5006 9.75004C14.6673 9.83336 14.8339 9.75004 15.0006 9.66672C15.0839 9.58336 15.2506 9.33336 15.0839 9.00004Z" fill="#307DF1"/>
</svg>
