<svg width="30" height="30" viewBox="0 0 30 30" fill="none" xmlns="http://www.w3.org/2000/svg">
<g clip-path="url(#clip0_164:47)">
<path d="M15 4.32125C14.4825 4.32125 14.0625 3.90125 14.0625 3.38375V0.9375C14.0625 0.42 14.4825 0 15 0C15.5175 0 15.9375 0.42 15.9375 0.9375V3.38375C15.9375 3.90125 15.5175 4.32125 15 4.32125Z" fill="#307DF1"/>
<path d="M23.2126 7.72373C22.9726 7.72373 22.7326 7.63248 22.5501 7.44873C22.1838 7.08248 22.1838 6.48873 22.5501 6.12248L24.2801 4.39249C24.6463 4.02624 25.2401 4.02624 25.6063 4.39249C25.9726 4.75873 25.9726 5.35248 25.6063 5.71873L23.8763 7.44873C23.6926 7.63123 23.4526 7.72373 23.2126 7.72373Z" fill="#307DF1"/>
<path d="M29.0634 15.9375H26.6172C26.0997 15.9375 25.6797 15.5175 25.6797 15C25.6797 14.4825 26.0997 14.0625 26.6172 14.0625H29.0634C29.5809 14.0625 30.0009 14.4825 30.0009 15C30.0009 15.5175 29.5809 15.9375 29.0634 15.9375Z" fill="#307DF1"/>
<path d="M24.9426 25.8812C24.7026 25.8812 24.4626 25.79 24.2801 25.6062L22.5501 23.8762C22.1838 23.51 22.1838 22.9162 22.5501 22.55C22.9163 22.1837 23.5101 22.1837 23.8763 22.55L25.6063 24.28C25.9726 24.6462 25.9726 25.24 25.6063 25.6062C25.4226 25.79 25.1826 25.8812 24.9426 25.8812Z" fill="#307DF1"/>
<path d="M5.05633 25.8812C4.81633 25.8812 4.57633 25.79 4.39383 25.6062C4.02758 25.24 4.02758 24.6462 4.39383 24.28L6.12382 22.55C6.49007 22.1837 7.08382 22.1837 7.45007 22.55C7.81632 22.9162 7.81632 23.51 7.45007 23.8762L5.72008 25.6062C5.53633 25.79 5.29633 25.8812 5.05633 25.8812Z" fill="#307DF1"/>
<path d="M3.38375 15.9375H0.9375C0.42 15.9375 0 15.5175 0 15C0 14.4825 0.42 14.0625 0.9375 14.0625H3.38375C3.90125 14.0625 4.32125 14.4825 4.32125 15C4.32125 15.5175 3.90125 15.9375 3.38375 15.9375Z" fill="#307DF1"/>
<path d="M6.78632 7.72373C6.54632 7.72373 6.30632 7.63248 6.12382 7.44873L4.39383 5.71873C4.02758 5.35248 4.02758 4.75873 4.39383 4.39249C4.76008 4.02624 5.35383 4.02624 5.72008 4.39249L7.45007 6.12248C7.81632 6.48873 7.81632 7.08248 7.45007 7.44873C7.26507 7.63123 7.02632 7.72373 6.78632 7.72373Z" fill="#307DF1"/>
<path d="M18.75 26.25V27.8125C18.75 29.0125 17.7625 30 16.5625 30H13.4375C12.3875 30 11.25 29.2 11.25 27.45V26.25H18.75Z" fill="#307DF1"/>
<path d="M20.5122 8.19999C18.4622 6.53749 15.7622 5.88749 13.1247 6.44999C9.81215 7.13749 7.12465 9.8375 6.43715 13.15C5.73715 16.55 7.01215 19.925 9.73715 21.9875C10.4747 22.5375 10.9872 23.3875 11.1622 24.375V24.3875C11.1872 24.375 11.2247 24.375 11.2497 24.375H18.7497C18.7747 24.375 18.7872 24.375 18.8122 24.3875V24.375C18.9872 23.425 19.5497 22.55 20.4122 21.875C22.5247 20.2 23.7497 17.7 23.7497 15C23.7497 12.35 22.5747 9.87499 20.5122 8.19999ZM19.6872 15.625C19.1747 15.625 18.7497 15.2 18.7497 14.6875C18.7497 12.7875 17.2122 11.25 15.3122 11.25C14.7997 11.25 14.3747 10.825 14.3747 10.3125C14.3747 9.79999 14.7997 9.37499 15.3122 9.37499C18.2372 9.37499 20.6247 11.7625 20.6247 14.6875C20.6247 15.2 20.1997 15.625 19.6872 15.625Z" fill="#307DF1"/>
<path d="M11.1641 24.375H11.2516C11.2266 24.375 11.1891 24.375 11.1641 24.3875V24.375Z" fill="#307DF1"/>
<path d="M18.8125 24.375V24.3875C18.7875 24.375 18.775 24.375 18.75 24.375H18.8125Z" fill="#307DF1"/>
</g>
<defs>
<clipPath id="clip0_164:47">
<rect width="30" height="30" fill="white"/>
</clipPath>
</defs>
</svg>
