<svg width="18" height="19" viewBox="0 0 18 19" fill="none" xmlns="http://www.w3.org/2000/svg">
<path d="M14.5122 2.19999C12.4622 0.537495 9.76215 -0.112505 7.12465 0.449995C3.81215 1.13749 1.12465 3.8375 0.437153 7.15C-0.262847 10.55 1.01215 13.925 3.73715 15.9875C4.47465 16.5375 4.98715 17.3875 5.16215 18.375V18.3875C5.18715 18.375 5.22465 18.375 5.24965 18.375H12.7497C12.7747 18.375 12.7872 18.375 12.8122 18.3875V18.375C12.9872 17.425 13.5497 16.55 14.4122 15.875C16.5247 14.2 17.7497 11.7 17.7497 8.99999C17.7497 6.34999 16.5747 3.87499 14.5122 2.19999ZM13.6872 9.62499C13.1747 9.62499 12.7497 9.2 12.7497 8.68749C12.7497 6.78749 11.2122 5.25 9.31215 5.25C8.79965 5.25 8.37465 4.825 8.37465 4.3125C8.37465 3.79999 8.79965 3.37499 9.31215 3.37499C12.2372 3.37499 14.6247 5.7625 14.6247 8.68749C14.6247 9.2 14.1997 9.62499 13.6872 9.62499Z" fill="#307DF1"/>
</svg>
