<svg width="22" height="22" viewBox="0 0 22 22" fill="none" xmlns="http://www.w3.org/2000/svg">
<path d="M11.0001 1.76785C15.2311 1.76785 18.6608 5.1975 18.6608 9.42857C18.6608 12.6657 16.3861 16.1936 11.8958 20.0499C11.6461 20.2643 11.3278 20.3821 10.9986 20.3819C10.6694 20.3816 10.3513 20.2632 10.102 20.0483L9.805 19.7906C5.51343 16.0349 3.33936 12.5934 3.33936 9.42857C3.33936 5.1975 6.769 1.76785 11.0001 1.76785ZM11.0001 6.48214C10.2186 6.48214 9.46919 6.79256 8.91663 7.34513C8.36407 7.89769 8.05364 8.64713 8.05364 9.42857C8.05364 10.21 8.36407 10.9594 8.91663 11.512C9.46919 12.0646 10.2186 12.375 11.0001 12.375C11.7815 12.375 12.5309 12.0646 13.0835 11.512C13.6361 10.9594 13.9465 10.21 13.9465 9.42857C13.9465 8.64713 13.6361 7.89769 13.0835 7.34513C12.5309 6.79256 11.7815 6.48214 11.0001 6.48214Z" fill="#307DF1"/>
</svg>
