<svg width="20" height="20" viewBox="0 0 20 20" fill="none" xmlns="http://www.w3.org/2000/svg">
<g clip-path="url(#clip0_143_74)">
<path d="M12.4999 10.8334C12.0391 10.8334 11.6666 11.2068 11.6666 11.6667V15.0001C11.6666 15.4592 11.2932 15.8334 10.8332 15.8334H8.33319V3.33352C8.33319 2.62186 7.87986 1.98603 7.19826 1.74937L6.95153 1.66682H10.8332C11.2932 1.66682 11.6666 2.04096 11.6666 2.50024V5.00022C11.6666 5.46011 12.0391 5.83349 12.4999 5.83349C12.9607 5.83349 13.3331 5.46011 13.3331 5.00022V2.50024C13.3331 1.12193 12.2115 0.000270844 10.8332 0.000270844H1.87498C1.84324 0.000270844 1.81669 0.0144614 1.78587 0.0185812C1.74574 0.0152243 1.70744 0.000270844 1.6667 0.000270844C0.74752 0.000270844 0 0.747639 0 1.66682V16.6667C0 17.3783 0.453334 18.0142 1.13494 18.2508L6.14999 19.9225C6.31997 19.975 6.48904 20.0001 6.66665 20.0001C7.58583 20.0001 8.33319 19.2525 8.33319 18.3334V17.5001H10.8332C12.2115 17.5001 13.3331 16.3784 13.3331 15.0001V11.6667C13.3331 11.2068 12.9607 10.8334 12.4999 10.8334Z" fill="#307DF1"/>
<path d="M19.7545 7.74432L16.4211 4.41108C16.1829 4.17274 15.8245 4.10102 15.5129 4.23011C15.2021 4.35935 14.9987 4.66346 14.9987 5.00021V7.50019H11.6655C11.2054 7.50019 10.832 7.87341 10.832 8.33346C10.832 8.79351 11.2054 9.16673 11.6655 9.16673H14.9987V11.6667C14.9987 12.0035 15.2021 12.3076 15.5129 12.4368C15.8245 12.5659 16.1829 12.4942 16.4211 12.256L19.7545 8.9226C20.0803 8.59682 20.0803 8.0701 19.7545 7.74432Z" fill="#307DF1"/>
</g>
<defs>
<clipPath id="clip0_143_74">
<rect width="20" height="20" fill="white"/>
</clipPath>
</defs>
</svg>
