<svg width="20" height="20" viewBox="0 0 20 20" fill="none" xmlns="http://www.w3.org/2000/svg">
<g clip-path="url(#clip0_198:221)">
<path d="M16.0413 10.8333H13.958C13.613 10.8333 13.333 10.5533 13.333 10.2083V7.29168C13.333 6.94668 13.613 6.66668 13.958 6.66668H16.0413C16.3863 6.66668 16.6663 6.94668 16.6663 7.29168V10.2083C16.6663 10.5533 16.3863 10.8333 16.0413 10.8333Z" fill="#404040"/>
<path d="M16.0413 16.6667H13.958C13.613 16.6667 13.333 16.3867 13.333 16.0417V13.125C13.333 12.78 13.613 12.5 13.958 12.5H16.0413C16.3863 12.5 16.6663 12.78 16.6663 13.125V16.0417C16.6663 16.3867 16.3863 16.6667 16.0413 16.6667Z" fill="#404040"/>
<path d="M10 4.16669H11.6667V18.3334H10V4.16669Z" fill="#404040"/>
<path d="M7.49967 9.16667H4.16634C3.70551 9.16667 3.33301 8.79333 3.33301 8.33333C3.33301 7.87333 3.70551 7.5 4.16634 7.5H7.49967C7.96051 7.5 8.33301 7.87333 8.33301 8.33333C8.33301 8.79333 7.96051 9.16667 7.49967 9.16667Z" fill="#404040"/>
<path d="M7.49967 12.5H4.16634C3.70551 12.5 3.33301 12.1267 3.33301 11.6667C3.33301 11.2067 3.70551 10.8333 4.16634 10.8333H7.49967C7.96051 10.8333 8.33301 11.2067 8.33301 11.6667C8.33301 12.1267 7.96051 12.5 7.49967 12.5Z" fill="#404040"/>
<path d="M7.49967 15.8334H4.16634C3.70551 15.8334 3.33301 15.46 3.33301 15C3.33301 14.54 3.70551 14.1667 4.16634 14.1667H7.49967C7.96051 14.1667 8.33301 14.54 8.33301 15C8.33301 15.46 7.96051 15.8334 7.49967 15.8334Z" fill="#404040"/>
<path d="M17.5 0.833321H2.5C1.12167 0.833321 0 1.95499 0 3.33332V16.6667C0 18.045 1.12167 19.1667 2.5 19.1667H17.5C18.8783 19.1667 20 18.045 20 16.6667V3.33332C20 1.95499 18.8783 0.833321 17.5 0.833321ZM17.5 17.5H2.5C2.04083 17.5 1.66667 17.1267 1.66667 16.6667V4.99999H18.3333V16.6667C18.3333 17.1267 17.9592 17.5 17.5 17.5Z" fill="#404040"/>
</g>
<defs>
<clipPath id="clip0_198:221">
<rect width="20" height="20" fill="white"/>
</clipPath>
</defs>
</svg>
