<svg width="22" height="22" viewBox="0 0 22 22" fill="none" xmlns="http://www.w3.org/2000/svg">
<path d="M11.0002 20.1667C5.93741 20.1667 1.8335 16.0628 1.8335 11C1.8335 5.93726 5.93741 1.83334 11.0002 1.83334C16.0629 1.83334 20.1668 5.93726 20.1668 11C20.1668 16.0628 16.0629 20.1667 11.0002 20.1667ZM7.79183 12.8333V14.6667H10.0835V16.5H11.9168V14.6667H12.8335C13.4413 14.6667 14.0242 14.4252 14.4539 13.9955C14.8837 13.5657 15.1252 12.9828 15.1252 12.375C15.1252 11.7672 14.8837 11.1843 14.4539 10.7546C14.0242 10.3248 13.4413 10.0833 12.8335 10.0833H9.16683C9.04527 10.0833 8.92869 10.0351 8.84274 9.9491C8.75678 9.86315 8.7085 9.74657 8.7085 9.62501C8.7085 9.50345 8.75678 9.38687 8.84274 9.30092C8.92869 9.21497 9.04527 9.16668 9.16683 9.16668H14.2085V7.33334H11.9168V5.50001H10.0835V7.33334H9.16683C8.55904 7.33334 7.97615 7.57479 7.54638 8.00456C7.11661 8.43433 6.87516 9.01722 6.87516 9.62501C6.87516 10.2328 7.11661 10.8157 7.54638 11.2455C7.97615 11.6752 8.55904 11.9167 9.16683 11.9167H12.8335C12.9551 11.9167 13.0716 11.965 13.1576 12.0509C13.2435 12.1369 13.2918 12.2535 13.2918 12.375C13.2918 12.4966 13.2435 12.6131 13.1576 12.6991C13.0716 12.7851 12.9551 12.8333 12.8335 12.8333H7.79183Z" fill="#307DF1"/>
</svg>
