<svg width="20" height="22" viewBox="0 0 20 22" fill="none" xmlns="http://www.w3.org/2000/svg">
<path d="M11.3056 4.78686C13.0003 3.38097 14.1327 0.213693 13.4358 0.0751642C12.5099 -0.108972 10.4991 0.698441 9.52727 0.840698C8.14883 1.00506 6.64751 -0.635444 5.8048 0.278972C5.11961 1.02245 6.29603 3.72625 8.13656 4.90416C2.64542 7.56935 -5.07274 20.9488 8.392 21.9196C27.0228 23.2629 17.6937 7.38402 11.3056 4.78686ZM12.9057 15.3385C12.8484 15.8601 12.5684 16.3318 12.15 16.6521C11.7082 16.9902 11.1541 17.1475 10.6035 17.1915V17.7679C10.6035 17.9221 10.5353 18.0712 10.4184 18.1733C10.2577 18.3137 10.0216 18.3483 9.82664 18.2596C9.6341 18.1721 9.50761 17.9771 9.50761 17.7679V17.1379C9.4132 17.1202 9.31948 17.0992 9.22685 17.0741C8.71229 16.9345 8.235 16.6623 7.88636 16.2597C7.71269 16.059 7.5711 15.8312 7.47318 15.5854C7.4476 15.5212 7.4248 15.4557 7.40482 15.3896C7.38674 15.3297 7.36808 15.2688 7.36163 15.2064C7.35078 15.1016 7.3718 14.9948 7.42123 14.9015C7.52282 14.7096 7.73691 14.5937 7.9555 14.6129C8.17063 14.6318 8.35919 14.7792 8.42692 14.9817C8.44778 15.0441 8.46193 15.1081 8.48536 15.1698C8.50859 15.231 8.53663 15.2906 8.5696 15.3474C8.63471 15.4591 8.71628 15.5621 8.81021 15.6515C9.00385 15.8357 9.25049 15.9555 9.50761 16.0267V13.8855C9.00485 13.757 8.48589 13.591 8.07072 13.2722C7.86895 13.1172 7.69775 12.9246 7.58562 12.6967C7.46731 12.4561 7.41829 12.1881 7.4163 11.9219C7.41426 11.6517 7.46626 11.3838 7.58043 11.1375C7.68737 10.9069 7.84133 10.6999 8.03009 10.5283C8.43373 10.1614 8.96988 9.9568 9.50766 9.88163V9.83453V9.28336C9.50766 9.1292 9.57586 8.98 9.69276 8.87792C9.85348 8.73758 10.0895 8.70289 10.2845 8.79162C10.477 8.87916 10.6036 9.07412 10.6036 9.28336V9.83453V9.87837C10.6752 9.88728 10.7467 9.89794 10.8178 9.91068C11.3458 10.005 11.8623 10.2204 12.2485 10.5964C12.4315 10.7745 12.5812 10.9867 12.6865 11.2181C12.7159 11.2826 12.7417 11.3487 12.764 11.416C12.7847 11.4788 12.8056 11.5435 12.8155 11.609C12.8313 11.7136 12.8152 11.8217 12.7698 11.9174C12.6769 12.1135 12.4686 12.2384 12.2495 12.2291C12.0341 12.2199 11.839 12.0814 11.7619 11.8826C11.7389 11.8235 11.7275 11.7609 11.704 11.7019C11.6804 11.6422 11.6498 11.5853 11.6145 11.5315C11.5459 11.4269 11.4571 11.3373 11.3556 11.2634C11.136 11.1032 10.8696 11.0198 10.6034 10.9731V13.0222C10.9198 13.097 11.2364 13.1786 11.5395 13.2966C11.9976 13.475 12.4317 13.7485 12.6817 14.1799C12.6429 14.1127 12.6052 14.0472 12.683 14.1821C12.7595 14.3146 12.723 14.2515 12.6846 14.185C12.8835 14.5313 12.9489 14.9452 12.9057 15.3385Z" fill="#307DF1"/>
</svg>
