<svg width="22" height="22" viewBox="0 0 22 22" fill="none" xmlns="http://www.w3.org/2000/svg">
<path d="M8.55283 10.5417H10.542C11.636 10.5417 12.6852 10.9763 13.4588 11.7498C14.2324 12.5234 14.667 13.5726 14.667 14.6667H8.24941L8.25033 15.5833H15.5837V14.6667C15.5808 13.6913 15.299 12.7371 14.7715 11.9167H17.417C18.2835 11.9164 19.1323 12.1618 19.865 12.6244C20.5977 13.0869 21.1842 13.7477 21.5567 14.5301C19.3887 17.391 15.8788 19.25 11.917 19.25C9.38608 19.25 7.24199 18.7092 5.50033 17.7604V9.23174C6.61555 9.3915 7.66868 9.84342 8.55283 10.5417ZM4.58366 17.4167C4.58366 17.6598 4.48708 17.8929 4.31517 18.0648C4.14327 18.2368 3.91011 18.3333 3.66699 18.3333H1.83366C1.59054 18.3333 1.35739 18.2368 1.18548 18.0648C1.01357 17.8929 0.916992 17.6598 0.916992 17.4167V9.16666C0.916992 8.92355 1.01357 8.69039 1.18548 8.51848C1.35739 8.34657 1.59054 8.24999 1.83366 8.24999H3.66699C3.91011 8.24999 4.14327 8.34657 4.31517 8.51848C4.48708 8.69039 4.58366 8.92355 4.58366 9.16666V17.4167ZM16.5003 4.58333C17.2297 4.58333 17.9291 4.87306 18.4449 5.38878C18.9606 5.90451 19.2503 6.60398 19.2503 7.33333C19.2503 8.06267 18.9606 8.76215 18.4449 9.27787C17.9291 9.7936 17.2297 10.0833 16.5003 10.0833C15.771 10.0833 15.0715 9.7936 14.5558 9.27787C14.0401 8.76215 13.7503 8.06267 13.7503 7.33333C13.7503 6.60398 14.0401 5.90451 14.5558 5.38878C15.0715 4.87306 15.771 4.58333 16.5003 4.58333ZM10.0837 1.83333C10.813 1.83333 11.5125 2.12306 12.0282 2.63878C12.5439 3.15451 12.8337 3.85398 12.8337 4.58333C12.8337 5.31267 12.5439 6.01215 12.0282 6.52787C11.5125 7.0436 10.813 7.33333 10.0837 7.33333C9.35431 7.33333 8.65484 7.0436 8.13911 6.52787C7.62339 6.01215 7.33366 5.31267 7.33366 4.58333C7.33366 3.85398 7.62339 3.15451 8.13911 2.63878C8.65484 2.12306 9.35431 1.83333 10.0837 1.83333Z" fill="#307DF1"/>
</svg>
