<svg width="20" height="20" viewBox="0 0 20 20" fill="none" xmlns="http://www.w3.org/2000/svg">
<g clip-path="url(#clip0_76:85)">
<path d="M16.0673 0.182595C15.9501 0.0654254 15.7911 -0.000396729 15.6254 -0.000396729C15.4597 -0.000396729 15.3007 0.0654254 15.1835 0.182595L13.1248 2.24134L17.7585 6.87509L19.8173 4.8176C19.8755 4.75954 19.9216 4.69057 19.9531 4.61464C19.9847 4.53871 20.0009 4.4573 20.0009 4.37509C20.0009 4.29289 19.9847 4.21148 19.9531 4.13555C19.9216 4.05962 19.8755 3.99065 19.8173 3.93259L16.0673 0.182595ZM16.8748 7.75884L12.241 3.12509L4.11601 11.2501H4.37476C4.54052 11.2501 4.69949 11.3159 4.8167 11.4332C4.93391 11.5504 4.99976 11.7093 4.99976 11.8751V12.5001H5.62476C5.79052 12.5001 5.94949 12.5659 6.0667 12.6832C6.18391 12.8004 6.24976 12.9593 6.24976 13.1251V13.7501H6.87476C7.04052 13.7501 7.19949 13.8159 7.3167 13.9332C7.43391 14.0504 7.49976 14.2093 7.49976 14.3751V15.0001H8.12476C8.29052 15.0001 8.44949 15.0659 8.5667 15.1832C8.68391 15.3004 8.74976 15.4593 8.74976 15.6251V15.8838L16.8748 7.75884ZM7.53976 17.0938C7.51345 17.0239 7.49991 16.9498 7.49976 16.8751V16.2501H6.87476C6.709 16.2501 6.55003 16.1842 6.43282 16.067C6.31561 15.9498 6.24976 15.7909 6.24976 15.6251V15.0001H5.62476C5.459 15.0001 5.30003 14.9342 5.18282 14.817C5.06561 14.6998 4.99976 14.5409 4.99976 14.3751V13.7501H4.37476C4.209 13.7501 4.05003 13.6842 3.93282 13.567C3.81561 13.4498 3.74976 13.2909 3.74976 13.1251V12.5001H3.12476C3.05003 12.5 2.97594 12.4864 2.90601 12.4601L2.68226 12.6826C2.62269 12.7426 2.57592 12.814 2.54476 12.8926L0.0447576 19.1426C-0.000705742 19.2562 -0.0118351 19.3806 0.0127492 19.5004C0.0373335 19.6203 0.0965504 19.7303 0.183059 19.8168C0.269567 19.9033 0.379562 19.9625 0.499407 19.9871C0.619252 20.0117 0.743678 20.0006 0.857258 19.9551L7.10726 17.4551C7.18584 17.4239 7.25728 17.3772 7.31726 17.3176L7.53976 17.0951V17.0938Z" fill="#307DF1"/>
</g>
<defs>
<clipPath id="clip0_76:85">
<rect width="20" height="20" fill="white"/>
</clipPath>
</defs>
</svg>
