<svg width="18" height="18" viewBox="0 0 18 18" fill="none" xmlns="http://www.w3.org/2000/svg">
<path d="M11.9783 12.7689L13.5183 11.2289C13.7244 11.0227 13.9865 10.8815 14.2721 10.8229C14.5577 10.7642 14.8542 10.7906 15.125 10.8989L17.0005 11.6496C17.2769 11.7602 17.5138 11.9511 17.6807 12.1977C17.8477 12.4442 17.9369 12.7351 17.9368 13.0329V16.4436C17.9373 16.6463 17.8964 16.847 17.8167 17.0333C17.7369 17.2197 17.6199 17.3878 17.4729 17.5274C17.3259 17.667 17.152 17.7751 16.9618 17.8452C16.7715 17.9152 16.569 17.9457 16.3666 17.9347C3.22022 17.1166 0.565091 5.98187 0.072154 1.718C0.0482796 1.50955 0.0688078 1.2984 0.132388 1.09845C0.195969 0.898499 0.301162 0.714275 0.441047 0.557895C0.580932 0.401514 0.75234 0.276521 0.943996 0.191137C1.13565 0.105753 1.34321 0.0619118 1.55303 0.0624982H4.90322C5.20095 0.0624886 5.49186 0.151689 5.73842 0.318592C5.98497 0.485495 6.17586 0.722444 6.28647 0.998873L7.03653 2.87437C7.14477 3.14509 7.1712 3.44162 7.11254 3.72722C7.05388 4.01282 6.91272 4.27492 6.70653 4.48106L5.16653 6.02106C5.16653 6.02106 6.0204 12.0243 11.9783 12.7689Z" fill="#307DF1"/>
</svg>
