<svg width="100" height="100" viewBox="0 0 100 100" fill="none" xmlns="http://www.w3.org/2000/svg">
<path d="M80.5275 5.85938L74.6682 0H25.3318L19.4725 5.85938H6.05469V42.4998C6.05469 68.867 23.8088 92.4998 49.1797 99.7654L50 100L50.8203 99.7654C76.1912 92.4998 93.9453 68.867 93.9453 42.4998V5.85938H80.5275Z" fill="#307DF1"/>
<path d="M93.9453 5.85938V42.4998C93.9453 68.867 76.1912 92.4998 50.8203 99.7654L50 100V0H74.6682L80.5275 5.85938H93.9453Z" fill="#307DF1"/>
<path d="M88.0859 11.7187V42.4998C88.0859 65.9959 72.4416 87.1094 50 93.9061C27.5584 87.1094 11.9141 65.9959 11.9141 42.4998V11.7187H21.9338L27.7932 5.85938H72.207L78.0664 11.7187H88.0859Z" fill="white"/>
<path d="M88.0859 11.7187V42.4998C88.0859 65.9959 72.4416 87.1094 50 93.9061V5.85938H72.2068L78.0662 11.7187H88.0859Z" fill="white"/>
<path d="M64.6484 26.3672V38.2812H58.7891V26.3672C58.7891 21.5037 54.8635 17.5781 50 17.5781C45.1365 17.5781 41.2109 21.5037 41.2109 26.3672V38.2812H35.3516V26.3672C35.3516 18.2812 41.9141 11.7188 50 11.7188C58.0859 11.7188 64.6484 18.2812 64.6484 26.3672Z" fill="#E1E6F0"/>
<path d="M64.6484 26.3672V38.2812H58.7891V26.3672C58.7891 21.5037 54.8635 17.5781 50 17.5781V11.7188C58.0859 11.7188 64.6484 18.2812 64.6484 26.3672Z" fill="#E1E6F0"/>
<path d="M29.4922 35.3516V55.8594C29.4922 67.168 38.6914 76.3672 50 76.3672C61.3086 76.3672 70.5078 67.168 70.5078 55.8594V35.3516H29.4922Z" fill="#307DF1"/>
<path d="M70.5078 35.3516V55.8594C70.5078 67.168 61.3086 76.3672 50 76.3672V35.3516H70.5078Z" fill="#307DF1"/>
<path d="M47.0703 47.0703H52.9297V64.6484H47.0703V47.0703Z" fill="#5F5166"/>
<path d="M50 47.0703H52.9297V64.6484H50V47.0703Z" fill="#45354D"/>
</svg>
