<svg width="22" height="22" viewBox="0 0 22 22" fill="none" xmlns="http://www.w3.org/2000/svg">
<path d="M18.8244 11.7442H17.123C17.2965 12.219 17.3912 12.7315 17.3912 13.2655V19.6958C17.3912 19.9185 17.3525 20.1322 17.2819 20.331H20.0947C21.1454 20.331 22.0002 19.4761 22.0002 18.4255V14.92C22.0002 13.1689 20.5756 11.7442 18.8244 11.7442Z" fill="#307DF1"/>
<path d="M4.60905 13.2656C4.60905 12.7315 4.7038 12.2191 4.87722 11.7443H3.17583C1.42467 11.7443 0 13.169 0 14.9201V18.4256C0 19.4762 0.854779 20.331 1.9055 20.331H4.71832C4.64781 20.1322 4.60905 19.9185 4.60905 19.6958V13.2656Z" fill="#307DF1"/>
<path d="M12.9453 10.0897H9.0557C7.30456 10.0897 5.87988 11.5144 5.87988 13.2656V19.6958C5.87988 20.0466 6.16425 20.331 6.51505 20.331H15.486C15.8368 20.331 16.1211 20.0466 16.1211 19.6958V13.2656C16.1211 11.5144 14.6965 10.0897 12.9453 10.0897Z" fill="#307DF1"/>
<path d="M11.001 1.66891C8.89498 1.66891 7.18164 3.38225 7.18164 5.48828C7.18164 6.91678 7.97007 8.16438 9.13444 8.8194C9.68672 9.13007 10.3234 9.30761 11.001 9.30761C11.6785 9.30761 12.3152 9.13007 12.8675 8.8194C14.0319 8.16438 14.8203 6.91674 14.8203 5.48828C14.8203 3.3823 13.1069 1.66891 11.001 1.66891Z" fill="#307DF1"/>
<path d="M4.29288 5.22883C2.71785 5.22883 1.43652 6.51017 1.43652 8.08519C1.43652 9.66022 2.71785 10.9415 4.29288 10.9415C4.6924 10.9415 5.07285 10.8588 5.41845 10.71C6.01597 10.4528 6.50865 9.99739 6.81351 9.42698C7.0275 9.02664 7.14923 8.56992 7.14923 8.08519C7.14923 6.51021 5.8679 5.22883 4.29288 5.22883Z" fill="#307DF1"/>
<path d="M17.706 5.22883C16.1309 5.22883 14.8496 6.51017 14.8496 8.08519C14.8496 8.56997 14.9713 9.02668 15.1853 9.42698C15.4902 9.99744 15.9829 10.4528 16.5804 10.71C16.926 10.8588 17.3064 10.9415 17.706 10.9415C19.281 10.9415 20.5623 9.66022 20.5623 8.08519C20.5623 6.51017 19.281 5.22883 17.706 5.22883Z" fill="#307DF1"/>
</svg>
