<svg width="20" height="20" viewBox="0 0 20 20" fill="none" xmlns="http://www.w3.org/2000/svg">
<g clip-path="url(#clip0_199:0)">
<path d="M7.19173 6.13801C7.11428 6.00334 7.11428 5.83928 7.19173 5.70507L9.62475 1.49018C9.77929 1.22218 10.22 1.22218 10.3746 1.49018L12.808 5.70507C12.8854 5.83925 12.8854 6.00334 12.808 6.13801C12.7305 6.27219 12.5876 6.35448 12.433 6.35448H7.56667C7.41206 6.35448 7.26925 6.27219 7.19173 6.13801ZM4.15479 12.2638H15.8454C16.0004 12.2638 16.1432 12.1815 16.2203 12.0473C16.2978 11.9132 16.2978 11.7486 16.2203 11.6144L14.0973 7.93723C14.0198 7.80305 13.877 7.72076 13.7223 7.72076H6.27872C6.12418 7.72076 5.98084 7.80305 5.90379 7.93723L3.78032 11.6144C3.70283 11.7486 3.70283 11.9132 3.78032 12.0473C3.85698 12.1811 3.99986 12.2638 4.15479 12.2638ZM19.9421 18.0614L17.5087 13.8469C17.4312 13.7127 17.2884 13.6305 17.1338 13.6305H2.86646C2.71191 13.6305 2.56858 13.7127 2.49152 13.8469L0.0581129 18.0614C-0.019371 18.1956 -0.019371 18.3602 0.0581129 18.4944C0.135597 18.6285 0.27844 18.7108 0.433049 18.7108H19.5672C19.7217 18.7108 19.865 18.6285 19.9421 18.4944C20.0191 18.3602 20.0196 18.1952 19.9421 18.0614Z" fill="#404040"/>
</g>
<defs>
<clipPath id="clip0_199:0">
<rect width="20" height="20" fill="white"/>
</clipPath>
</defs>
</svg>
