<svg width="22" height="22" viewBox="0 0 22 22" fill="none" xmlns="http://www.w3.org/2000/svg">
<path d="M10.065 3.85C11.0674 3.85 11.88 3.0374 11.88 2.035C11.88 1.0326 11.0674 0.220001 10.065 0.220001C9.0626 0.220001 8.25 1.0326 8.25 2.035C8.25 3.0374 9.0626 3.85 10.065 3.85Z" fill="#307DF1"/>
<path d="M9.68016 4.4H8.36016C7.11936 4.4 6.16016 5.15636 6.16016 6.41828V11.88C6.16016 12.76 7.48016 12.76 7.48016 11.88V6.6H7.92016V20.68C7.92016 21.2225 8.25808 21.56 8.80016 21.56C9.34356 21.56 9.68016 21.2225 9.68016 20.68V4.4ZM15.4002 11L13.6327 6.44292C13.4791 5.42168 12.4478 4.4 11.2708 4.4H10.1202V14.8645C10.3402 14.8654 10.5602 14.8975 10.5602 14.96V20.68C10.5602 21.1376 10.9636 21.56 11.4402 21.56C11.918 21.56 12.3202 21.1372 12.3202 20.68V14.96H14.0225C14.1818 14.96 14.4819 14.6722 14.4819 14.52C14.4819 14.4848 14.4946 14.1104 14.4819 14.08L11.8819 6.93572L11.867 6.86224C11.867 6.75796 11.9545 6.67348 12.0636 6.67348C12.1565 6.67348 12.2344 6.73552 12.255 6.81824L14.0225 11.44C14.14 11.7044 14.6231 11.88 14.9408 11.88C15.3654 11.88 15.4094 11.0462 15.4002 11Z" fill="#307DF1"/>
</svg>
