<svg width="35" height="35" viewBox="0 0 35 35" fill="none" xmlns="http://www.w3.org/2000/svg">
<circle cx="17.5" cy="17.5" r="17.5" fill="white"/>
<path d="M17.665 28.2153C18.0732 28.2059 18.465 28.0525 18.771 27.7821C19.077 27.5117 19.2775 27.1418 19.337 26.7378H15.9282C15.9894 27.1527 16.1993 27.5313 16.5188 27.8031C16.8383 28.0749 17.2456 28.2214 17.665 28.2153Z" fill="#307DF1"/>
<path d="M27.2886 24.2298L27.0683 24.0354C26.4432 23.4784 25.896 22.8398 25.4417 22.1366C24.9454 21.1662 24.6479 20.1064 24.5668 19.0194V15.818C24.5642 15.4292 24.5295 15.0412 24.4631 14.658C23.3654 14.4324 22.3793 13.8344 21.6719 12.9652C20.9645 12.096 20.5792 11.009 20.5812 9.88833V9.48006C19.9046 9.14708 19.1777 8.92812 18.4297 8.832V8.01545C18.4297 7.786 18.3385 7.56594 18.1763 7.4037C18.0141 7.24145 17.794 7.1503 17.5645 7.1503C17.3351 7.1503 17.115 7.24145 16.9528 7.4037C16.7905 7.56594 16.6994 7.786 16.6994 8.01545V8.86441C15.0246 9.10066 13.4919 9.93483 12.3841 11.2129C11.2764 12.491 10.6684 14.1267 10.6725 15.818V19.0194C10.5913 20.1064 10.2939 21.1662 9.7976 22.1366C9.35101 22.838 8.81268 23.4766 8.1969 24.0354L7.97656 24.2298V26.0573H27.2886V24.2298Z" fill="#307DF1"/>
<path d="M25.4415 13.1286C27.231 13.1286 28.6817 11.6779 28.6817 9.88832C28.6817 8.09876 27.231 6.64804 25.4415 6.64804C23.6519 6.64804 22.2012 8.09876 22.2012 9.88832C22.2012 11.6779 23.6519 13.1286 25.4415 13.1286Z" fill="#307DF1"/>
</svg>
