<svg width="20" height="20" viewBox="0 0 20 20" fill="none" xmlns="http://www.w3.org/2000/svg">
<path d="M10.0002 19.1667C4.93741 19.1667 0.833496 15.0628 0.833496 10C0.833496 4.93726 4.93741 0.833344 10.0002 0.833344C15.0629 0.833344 19.1668 4.93726 19.1668 10C19.1668 15.0628 15.0629 19.1667 10.0002 19.1667ZM6.79183 11.8333V13.6667H9.0835V15.5H10.9168V13.6667H11.8335C12.4413 13.6667 13.0242 13.4252 13.4539 12.9955C13.8837 12.5657 14.1252 11.9828 14.1252 11.375C14.1252 10.7672 13.8837 10.1843 13.4539 9.75456C13.0242 9.32479 12.4413 9.08334 11.8335 9.08334H8.16683C8.04527 9.08334 7.92869 9.03506 7.84274 8.9491C7.75678 8.86315 7.7085 8.74657 7.7085 8.62501C7.7085 8.50345 7.75678 8.38687 7.84274 8.30092C7.92869 8.21497 8.04527 8.16668 8.16683 8.16668H13.2085V6.33334H10.9168V4.50001H9.0835V6.33334H8.16683C7.55904 6.33334 6.97615 6.57479 6.54638 7.00456C6.11661 7.43433 5.87516 8.01722 5.87516 8.62501C5.87516 9.2328 6.11661 9.81569 6.54638 10.2455C6.97615 10.6752 7.55904 10.9167 8.16683 10.9167H11.8335C11.9551 10.9167 12.0716 10.965 12.1576 11.0509C12.2435 11.1369 12.2918 11.2535 12.2918 11.375C12.2918 11.4966 12.2435 11.6131 12.1576 11.6991C12.0716 11.7851 11.9551 11.8333 11.8335 11.8333H6.79183Z" fill="#307DF1"/>
</svg>
