<svg width="35" height="35" viewBox="0 0 35 35" fill="none" xmlns="http://www.w3.org/2000/svg">
<path d="M35 17.5C35 27.165 27.165 35 17.5 35C7.83502 35 0 27.165 0 17.5C0 7.83502 7.83502 0 17.5 0C27.165 0 35 7.83502 35 17.5Z" fill="white"/>
<path d="M9.03498 20.9763C12.0986 24.0391 16.926 24.2528 20.2401 21.6252L20.9306 22.315L20.3571 22.8881L25.0398 27.5705C24.8656 27.8461 24.7901 28.0583 24.8772 28.1447L25.1335 28.4006C25.5502 28.8181 28.8173 25.55 28.4006 25.1333L28.1443 24.8777C28.0578 24.7909 27.846 24.8656 27.5711 25.0399L22.8877 20.3576L22.3146 20.9307L21.6244 20.2405C24.2516 16.9261 24.0383 12.0983 20.9758 9.03507C17.6785 5.73815 12.3323 5.73815 9.03498 9.03507C5.73732 12.3331 5.73805 17.679 9.03498 20.9763V20.9763ZM10.0299 10.0308C12.7774 7.28289 17.2337 7.28289 19.9805 10.0308C22.7284 12.7779 22.7284 17.2342 19.9805 19.9813C17.233 22.7296 12.7782 22.7288 10.0299 19.9813C7.28316 17.2335 7.28243 12.7786 10.0299 10.0308Z" fill="#307DF1"/>
<path d="M8.99852 14.5476C9.30139 15.3521 9.77233 16.0828 10.3799 16.691C12.7545 19.0659 16.6056 19.0659 18.9812 16.6899C19.9852 15.6889 20.6062 14.3673 20.7359 12.9555C21.5584 15.1244 21.1005 17.6681 19.3541 19.4144C16.9789 21.7897 13.1278 21.7897 10.7525 19.4144C9.42035 18.0833 8.83665 16.2874 8.99852 14.5476Z" fill="#307DF1"/>
</svg>
