<svg width="30" height="30" viewBox="0 0 30 30" fill="none" xmlns="http://www.w3.org/2000/svg">
<path d="M5.08311 10.6695L6.73461 27.0315C6.82611 27.723 10.1651 29.997 14.9996 30C19.8371 29.997 23.1761 27.723 23.2661 27.0315L24.9191 10.6695C22.3931 12.0825 18.6176 12.75 14.9996 12.75C11.3846 12.75 7.60761 12.0825 5.08311 10.6695ZM19.7516 2.265L18.4631 0.8385C17.9651 0.129 17.4251 0 16.3736 0H13.6271C12.5771 0 12.0356 0.129 11.5391 0.8385L10.2506 2.265C6.39561 2.9385 3.59961 4.725 3.59961 6.0435V6.2985C3.59961 8.619 8.70411 10.5 14.9996 10.5C21.2966 10.5 26.4011 8.619 26.4011 6.2985V6.0435C26.4011 4.725 23.6066 2.9385 19.7516 2.265ZM18.1046 6.51L16.4996 4.5H13.4996L11.8976 6.51H9.34761C9.34761 6.51 12.1406 3.1785 12.5141 2.727C12.7991 2.382 13.0901 2.25 13.4681 2.25H16.5326C16.9121 2.25 17.2031 2.382 17.4881 2.727C17.8601 3.1785 20.6546 6.51 20.6546 6.51H18.1046Z" fill="white"/>
</svg>
