<svg width="30" height="30" viewBox="0 0 30 30" fill="none" xmlns="http://www.w3.org/2000/svg">
<path d="M5.0836 10.6695L6.7351 27.0315C6.8266 27.723 10.1656 29.997 15.0001 30C19.8376 29.997 23.1766 27.723 23.2666 27.0315L24.9196 10.6695C22.3936 12.0825 18.6181 12.75 15.0001 12.75C11.3851 12.75 7.6081 12.0825 5.0836 10.6695ZM19.7521 2.265L18.4636 0.8385C17.9656 0.129 17.4256 0 16.3741 0H13.6276C12.5776 0 12.0361 0.129 11.5396 0.8385L10.2511 2.265C6.3961 2.9385 3.6001 4.725 3.6001 6.0435V6.2985C3.6001 8.619 8.7046 10.5 15.0001 10.5C21.2971 10.5 26.4016 8.619 26.4016 6.2985V6.0435C26.4016 4.725 23.6071 2.9385 19.7521 2.265ZM18.1051 6.51L16.5001 4.5H13.5001L11.8981 6.51H9.3481C9.3481 6.51 12.1411 3.1785 12.5146 2.727C12.7996 2.382 13.0906 2.25 13.4686 2.25H16.5331C16.9126 2.25 17.2036 2.382 17.4886 2.727C17.8606 3.1785 20.6551 6.51 20.6551 6.51H18.1051Z" fill="#404040"/>
</svg>
