<svg width="20" height="20" viewBox="0 0 20 20" fill="none" xmlns="http://www.w3.org/2000/svg">
<path d="M17.2745 13.4553L16.5459 12.7267C16.4872 12.668 16.3909 12.668 16.3319 12.7267L15.8495 13.209C15.7845 13.274 15.7845 13.3797 15.8495 13.4447L16.5565 14.1517C16.6215 14.2167 16.7272 14.2167 16.7922 14.1517L17.2745 13.6693C17.3132 13.6307 17.3189 13.586 17.3189 13.5623C17.3189 13.539 17.3132 13.494 17.2745 13.4553Z" fill="#307DF1"/>
<path d="M15 10C12.243 10 10 12.243 10 15C10 17.757 12.243 20 15 20C17.757 20 20 17.757 20 15C20 12.243 17.757 10 15 10ZM17.7457 14.141L14.7883 17.098C14.7457 17.1407 14.692 17.171 14.6333 17.1857L12.7473 17.6567C12.7206 17.6634 12.6936 17.6667 12.6666 17.6667C12.5793 17.6667 12.494 17.6323 12.4306 17.569C12.348 17.486 12.3146 17.366 12.343 17.2523L12.815 15.3673C12.8296 15.3087 12.86 15.2554 12.9026 15.2127L15.0239 13.0914L15.8596 12.2554C16.1789 11.9364 16.6976 11.937 17.0163 12.2554L17.7453 12.9843C17.8996 13.1387 17.9849 13.3443 17.9849 13.5627C17.9854 13.781 17.9 13.9863 17.7457 14.141Z" fill="#307DF1"/>
<path d="M16.0847 14.623L15.378 13.916C15.313 13.851 15.2073 13.851 15.1423 13.916L13.4723 15.586C13.451 15.6073 13.436 15.634 13.4283 15.6634L13.1927 16.6057C13.162 16.7277 13.2727 16.8384 13.3947 16.8077L14.3377 16.5723C14.367 16.565 14.3937 16.55 14.415 16.5284L16.0847 14.8587C16.1497 14.7937 16.1497 14.688 16.0847 14.623Z" fill="#307DF1"/>
<path d="M17.3333 2H10.222C10.15 2 10.08 1.97668 10.0223 1.93332L7.71102 0.2C7.53801 0.07 7.32734 0 7.11102 0H2C1.44766 0 1 0.447656 1 1V3.66668C1 3.85066 1.14934 4 1.33332 4H3C3.18398 4 3.33332 3.85066 3.33332 3.66668V3.33336C3.33332 3.14937 3.48266 3.00004 3.66664 3.00004H15.6666C15.8506 3.00004 16 3.14937 16 3.33336V3.66668C16 3.85066 16.1493 4 16.3333 4H18C18.184 4 18.3333 3.85066 18.3333 3.66668V3C18.3333 2.44766 17.8857 2 17.3333 2ZM4 1.66668H2.66668C2.4827 1.66668 2.33336 1.51734 2.33336 1.33336C2.33336 1.14937 2.4827 1.00004 2.66668 1.00004H4C4.18398 1.00004 4.33332 1.14937 4.33332 1.33336C4.33332 1.51734 4.18398 1.66668 4 1.66668ZM5.33332 1.66668C5.14934 1.66668 5 1.51734 5 1.33336C5 1.14937 5.14934 1.00004 5.33332 1.00004C5.5173 1.00004 5.66664 1.14937 5.66664 1.33336C5.66668 1.51734 5.51734 1.66668 5.33332 1.66668ZM7 1.66668H6.66668C6.4827 1.66668 6.33336 1.51734 6.33336 1.33336C6.33336 1.14937 6.4827 1.00004 6.66668 1.00004H7C7.18398 1.00004 7.33332 1.14937 7.33332 1.33336C7.33332 1.51734 7.18398 1.66668 7 1.66668Z" fill="#307DF1"/>
<path d="M2.33465 8C2.70285 8 3.00133 7.70152 3.00133 7.33332C3.00133 6.96512 2.70285 6.66664 2.33465 6.66664C1.96645 6.66664 1.66797 6.96512 1.66797 7.33332C1.66797 7.70152 1.96645 8 2.33465 8Z" fill="#307DF1"/>
<path d="M18.3333 4.66667H1C0.447656 4.66667 0 5.11433 0 5.66667V18.3334C0 18.8834 0.45 19.3334 1 19.3334H10.528C10.607 19.3334 10.6867 19.3053 10.7504 19.2484C10.8877 19.1257 10.899 18.915 10.7764 18.7777C9.46504 17.313 8.98402 15.2487 9.59703 13.2757C10.1384 11.5327 11.5294 10.141 13.272 9.59835C15.2464 8.9837 17.313 9.46468 18.7787 10.777C18.9161 10.9 19.1264 10.8884 19.2494 10.751C19.318 10.674 19.3334 10.4573 19.3334 10.4443V9.66667V5.66667C19.3333 5.11433 18.8857 4.66667 18.3333 4.66667ZM3.41 8.30964C3.66332 8.67198 3.66668 9.03331 3.66668 9.33331C3.66668 9.5173 3.51734 9.66663 3.33336 9.66663C3.14937 9.66663 3.00004 9.5173 3.00004 9.33331C3.00004 9.06999 2.99871 8.86898 2.84938 8.66831C2.80973 8.61499 2.73805 8.59999 2.67402 8.61796C2.56535 8.64831 2.45168 8.66663 2.33336 8.66663C2.21504 8.66663 2.10137 8.64831 1.9927 8.61796C1.92871 8.59995 1.85703 8.61495 1.81734 8.66831C1.66801 8.86898 1.66668 9.06999 1.66668 9.33331C1.66668 9.5173 1.51734 9.66663 1.33336 9.66663C1.14937 9.66663 1.00004 9.5173 1.00004 9.33331C1.00004 9.03331 1.00336 8.67198 1.25637 8.30964C1.29937 8.24796 1.29938 8.16862 1.25504 8.10765C1.02738 7.79464 0.928359 7.38331 1.05703 6.94398C1.18871 6.49464 1.5657 6.13933 2.02203 6.0353C2.89203 5.83765 3.66672 6.49663 3.66672 7.33331C3.66672 7.62366 3.57039 7.88964 3.41172 8.10796C3.36734 8.16866 3.36699 8.248 3.41 8.30964ZM8.33332 12.3333C8.14934 12.3333 8 12.184 8 12C8 10.2973 7.22367 9.37534 6.85699 8.99632C6.81598 8.95366 6.75531 8.93898 6.69801 8.953C6.58066 8.98132 6.45969 8.99999 6.33336 8.99999C6.20703 8.99999 6.08602 8.98132 5.96867 8.953C5.91133 8.93902 5.85066 8.95402 5.80969 8.99632C5.44301 9.3753 4.66668 10.2973 4.66668 12C4.66668 12.184 4.51734 12.3333 4.33336 12.3333C4.14937 12.3333 4.00004 12.184 4.00004 12C4.00004 10.274 4.70203 9.23933 5.15871 8.71866C5.21738 8.65167 5.20703 8.55366 5.14473 8.48999C4.77973 8.11765 4.5834 7.58066 4.70074 6.99601C4.82875 6.35734 5.33941 5.83702 5.97707 5.70402C7.05074 5.48003 8.00008 6.298 8.00008 7.33335C8.00008 7.78503 7.81574 8.1907 7.52207 8.49003C7.45973 8.55335 7.44941 8.65171 7.50809 8.7187C7.96477 9.23937 8.66676 10.2741 8.66676 12C8.66668 12.184 8.51734 12.3333 8.33332 12.3333ZM11.4104 8.30964C11.6634 8.67198 11.6667 9.03331 11.6667 9.33331C11.6667 9.5173 11.5173 9.66663 11.3334 9.66663C11.1494 9.66663 11 9.5173 11 9.33331C11 9.06999 10.9987 8.86898 10.8494 8.66831C10.8097 8.61499 10.738 8.59999 10.674 8.61796C10.5654 8.64831 10.4517 8.66663 10.3334 8.66663C10.215 8.66663 10.1014 8.64831 9.9927 8.61796C9.92871 8.59995 9.85703 8.61495 9.81734 8.66831C9.66801 8.86898 9.66668 9.06999 9.66668 9.33331C9.66668 9.5173 9.51734 9.66663 9.33336 9.66663C9.14937 9.66663 9.00004 9.5173 9.00004 9.33331C9.00004 9.03331 9.00336 8.67198 9.25637 8.30964C9.29937 8.24796 9.29937 8.16862 9.25504 8.10765C9.02738 7.79464 8.92836 7.38331 9.05703 6.94398C9.18871 6.49464 9.5657 6.13933 10.022 6.0353C10.892 5.83765 11.6667 6.49663 11.6667 7.33331C11.6667 7.62366 11.5704 7.88964 11.4117 8.10796C11.3673 8.16866 11.3673 8.248 11.4104 8.30964Z" fill="#307DF1"/>
<path d="M10.3307 8C10.6989 8 10.9974 7.70152 10.9974 7.33332C10.9974 6.96512 10.6989 6.66664 10.3307 6.66664C9.96254 6.66664 9.66406 6.96512 9.66406 7.33332C9.66406 7.70152 9.96254 8 10.3307 8Z" fill="#307DF1"/>
<path d="M6.33203 8.33332C6.88432 8.33332 7.33203 7.88561 7.33203 7.33332C7.33203 6.78104 6.88432 6.33332 6.33203 6.33332C5.77975 6.33332 5.33203 6.78104 5.33203 7.33332C5.33203 7.88561 5.77975 8.33332 6.33203 8.33332Z" fill="#307DF1"/>
</svg>
