<svg width="16" height="20" viewBox="0 0 16 20" fill="none" xmlns="http://www.w3.org/2000/svg">
<path d="M13.4883 19.1667C13.9746 19.1667 14.4409 18.9735 14.7847 18.6297C15.1285 18.2859 15.3217 17.8196 15.3217 17.3333V2.66666C15.3217 2.18043 15.1285 1.71412 14.7847 1.3703C14.4409 1.02648 13.9746 0.833328 13.4883 0.833328H2.49935C2.01312 0.833328 1.5468 1.02648 1.20299 1.3703C0.85917 1.71412 0.666016 2.18043 0.666016 2.66666V17.3333C0.666016 17.8196 0.85917 18.2859 1.20299 18.6297C1.5468 18.9735 2.01312 19.1667 2.49935 19.1667H13.4883ZM5.24935 3.58333H10.7493V5.41666H5.24935V3.58333ZM10.0618 9.3125C10.0597 9.85892 9.84171 10.3824 9.45541 10.7688C9.06911 11.1553 8.54577 11.3735 7.99935 11.3759C6.86727 11.3759 5.93685 10.4455 5.93685 9.3125C5.93685 8.1795 6.86727 7.25 7.99935 7.25C8.54569 7.25217 9.06903 7.47016 9.45536 7.85649C9.84168 8.24281 10.0597 8.76615 10.0618 9.3125ZM3.87435 15.6723C3.87435 14.147 5.73335 12.5786 7.99935 12.5786C10.2653 12.5786 12.1243 14.147 12.1243 15.6723V16.1884H3.87435V15.6723Z" fill="#307DF1"/>
</svg>
