<svg width="16" height="20" viewBox="0 0 16 20" fill="none" xmlns="http://www.w3.org/2000/svg">
<path d="M8.00056 0.767857C12.2316 0.767857 15.6613 4.1975 15.6613 8.42857C15.6613 11.6657 13.3866 15.1936 8.89627 19.0499C8.64659 19.2643 8.32825 19.3821 7.99909 19.3819C7.66993 19.3816 7.35179 19.2632 7.10249 19.0483L6.80549 18.7906C2.51392 15.0349 0.339844 11.5934 0.339844 8.42857C0.339844 4.1975 3.76949 0.767857 8.00056 0.767857ZM8.00056 5.48214C7.21912 5.48214 6.46968 5.79257 5.91712 6.34513C5.36456 6.89769 5.05413 7.64713 5.05413 8.42857C5.05413 9.21001 5.36456 9.95945 5.91712 10.512C6.46968 11.0646 7.21912 11.375 8.00056 11.375C8.782 11.375 9.53144 11.0646 10.084 10.512C10.6366 9.95945 10.947 9.21001 10.947 8.42857C10.947 7.64713 10.6366 6.89769 10.084 6.34513C9.53144 5.79257 8.782 5.48214 8.00056 5.48214Z" fill="#307DF1"/>
</svg>
