<svg width="20" height="20" viewBox="0 0 20 20" fill="none" xmlns="http://www.w3.org/2000/svg">
<path d="M19.2404 6.82832C18.6201 7.11474 17.9434 7.25845 17.2602 7.24888C16.577 7.23931 15.9046 7.07669 15.2926 6.773C14.6805 6.46931 14.1443 6.03226 13.7234 5.49401C13.3025 4.95576 13.0076 4.33 12.8605 3.66276C11.9634 3.2498 10.9879 3.03511 10.0005 3.03332C8.2923 3.02563 6.64096 3.64633 5.36078 4.77726C4.08061 5.90818 3.26098 7.47037 3.05794 9.16642C2.8549 10.8625 3.28261 12.574 4.25966 13.9751C5.23671 15.3763 6.69487 16.3692 8.35656 16.765L8.16712 17.7183C6.28346 17.2592 4.63272 16.1271 3.52586 14.5353C2.419 12.9435 1.93244 11.0019 2.15784 9.07624C2.38324 7.15059 3.30504 5.37383 4.74958 4.08067C6.19412 2.78752 8.06169 2.06724 10.0005 2.05554C10.9418 2.0555 11.8755 2.22526 12.7566 2.55665C12.7712 1.9357 12.9127 1.32431 13.1721 0.759982C11.0737 0.0344158 8.79134 0.0417924 6.69769 0.780907C4.60405 1.52002 2.82288 2.9472 1.64509 4.82934C0.467307 6.71148 -0.0374939 8.93737 0.213136 11.1435C0.463766 13.3495 1.45502 15.4055 3.02499 16.9754C4.59497 18.5454 6.65089 19.5367 8.85698 19.7873C11.0631 20.0379 13.2889 19.5331 15.1711 18.3553C17.0532 17.1776 18.4804 15.3964 19.2195 13.3027C19.9586 11.2091 19.966 8.9267 19.2404 6.82832ZM13.7893 13.1655C13.7449 13.2327 13.6877 13.2905 13.6209 13.3354C13.5541 13.3804 13.4791 13.4118 13.4002 13.4277C13.3213 13.4436 13.2399 13.4437 13.161 13.4281C13.082 13.4125 13.0068 13.3814 12.9399 13.3366L9.33434 10.8922V5.56943C9.33434 5.40735 9.39872 5.25191 9.51333 5.13731C9.62793 5.0227 9.78337 4.95832 9.94545 4.95832C10.1075 4.95832 10.263 5.0227 10.3776 5.13731C10.4922 5.25191 10.5566 5.40735 10.5566 5.56943V10.2444L13.6121 12.3161C13.6798 12.36 13.7381 12.4169 13.7837 12.4834C13.8292 12.55 13.8612 12.6249 13.8777 12.7039C13.8941 12.7829 13.8948 12.8643 13.8797 12.9436C13.8645 13.0228 13.8338 13.0982 13.7893 13.1655Z" fill="#307DF1"/>
</svg>
